<svg width="30" height="30" viewBox="0 0 30 30" fill="none" xmlns="http://www.w3.org/2000/svg">
<path d="M22.9538 22.9547C23.4419 22.4666 23.4419 21.6751 22.9538 21.187L16.7674 15.0006L22.9555 8.8126C23.4436 8.32444 23.4436 7.53299 22.9555 7.04483C22.4673 6.55668 21.6758 6.55667 21.1877 7.04483L14.9997 13.2329L8.81162 7.04483C8.32346 6.55667 7.53201 6.55667 7.04385 7.04483C6.5557 7.53298 6.5557 8.32444 7.04385 8.81259L13.2319 15.0006L7.04555 21.187C6.55739 21.6751 6.55739 22.4666 7.04555 22.9547C7.5337 23.4429 8.32516 23.4429 8.81332 22.9547L14.9997 16.7684L21.186 22.9547C21.6741 23.4429 22.4656 23.4429 22.9538 22.9547Z" fill="#1D1D20"/>
</svg>
