<svg width="20" height="20" viewBox="0 0 20 20" fill="none" xmlns="http://www.w3.org/2000/svg">
<path fill-rule="evenodd" clip-rule="evenodd" d="M18.3337 9.99984C18.3337 14.6019 14.6024 18.3332 10.0003 18.3332C5.39824 18.3332 1.66699 14.6019 1.66699 9.99984C1.66699 5.39775 5.39824 1.6665 10.0003 1.6665C14.6024 1.6665 18.3337 5.39775 18.3337 9.99984ZM10.2989 7.81859C9.48852 8.15539 7.86838 8.85331 5.43921 9.91164C5.04477 10.0686 4.83783 10.2221 4.81908 10.3721C4.78713 10.6262 5.10519 10.7262 5.53713 10.8616C5.59616 10.8804 5.65727 10.8991 5.71977 10.92C6.14546 11.0582 6.71769 11.22 7.01491 11.2262C7.28505 11.2318 7.58644 11.1207 7.91908 10.8929C10.1885 9.36025 11.36 8.58595 11.4337 8.56928C11.4857 8.55748 11.558 8.5422 11.6066 8.58595C11.6552 8.629 11.6503 8.71095 11.6455 8.73317C11.6135 8.8672 10.3677 10.0262 9.72185 10.6262C9.52046 10.813 9.3781 10.9457 9.34894 10.9762C9.28366 11.0436 9.21699 11.1082 9.1531 11.17C8.75727 11.5505 8.46144 11.8366 9.16977 12.3033C9.51005 12.5276 9.78227 12.713 10.0538 12.8978C10.3503 13.0998 10.6462 13.3012 11.0295 13.5526C11.1267 13.6165 11.2198 13.6825 11.3107 13.7471C11.6559 13.9936 11.9663 14.2144 12.3496 14.1797C12.5719 14.1589 12.8024 13.9498 12.9191 13.3255C13.1948 11.8491 13.7378 8.65192 13.8635 7.33387C13.8712 7.22443 13.8665 7.11448 13.8496 7.00609C13.8395 6.91854 13.7969 6.83798 13.7302 6.78039C13.6309 6.69914 13.4767 6.68178 13.4073 6.68317C13.0941 6.68873 12.6135 6.85609 10.2989 7.81859Z" fill="#FEFEFF"/>
</svg>
