<svg width="20" height="20" viewBox="0 0 20 20" fill="none" xmlns="http://www.w3.org/2000/svg">
<path d="M1.67034 18.3332L2.797 14.1932C2.05462 12.9205 1.66458 11.4732 1.667 9.99984C1.667 5.39734 5.39784 1.6665 10.0003 1.6665C14.6028 1.6665 18.3337 5.39734 18.3337 9.99984C18.3337 14.6023 14.6028 18.3332 10.0003 18.3332C8.52765 18.3355 7.08088 17.9458 5.80867 17.204L1.67034 18.3332ZM6.99284 6.08984C6.88522 6.09652 6.78007 6.12486 6.68367 6.17317C6.59327 6.22436 6.51075 6.28836 6.43867 6.36317C6.33867 6.45734 6.282 6.539 6.22117 6.61817C5.91318 7.019 5.74751 7.51102 5.75034 8.0165C5.752 8.42484 5.85867 8.82234 6.02534 9.194C6.36617 9.94567 6.927 10.7415 7.66784 11.479C7.84617 11.6565 8.02034 11.8348 8.20784 12.0007C9.12733 12.8102 10.223 13.394 11.4078 13.7057L11.882 13.7782C12.0362 13.7865 12.1903 13.7748 12.3453 13.7673C12.588 13.7548 12.825 13.6891 13.0395 13.5748C13.1486 13.5186 13.2551 13.4574 13.3587 13.3915C13.3587 13.3915 13.3945 13.3682 13.4628 13.3165C13.5753 13.2332 13.6445 13.174 13.7378 13.0765C13.807 13.0048 13.867 12.9207 13.9128 12.8248C13.9778 12.689 14.0428 12.4298 14.0695 12.214C14.0895 12.049 14.0837 11.959 14.0812 11.9032C14.0778 11.814 14.0037 11.7215 13.9228 11.6823L13.4378 11.4648C13.4378 11.4648 12.7128 11.149 12.2703 10.9473C12.2237 10.927 12.1737 10.9154 12.1228 10.9132C12.0658 10.9073 12.0082 10.9137 11.9539 10.932C11.8995 10.9502 11.8498 10.9799 11.8078 11.019V11.0173C11.8037 11.0173 11.7478 11.0648 11.1453 11.7948C11.1108 11.8413 11.0631 11.8764 11.0085 11.8957C10.9539 11.915 10.8948 11.9176 10.8387 11.9032C10.7844 11.8887 10.7312 11.8703 10.6795 11.8482C10.5762 11.8048 10.5403 11.7882 10.4695 11.7573L10.4653 11.7557C9.9886 11.5475 9.54719 11.2664 9.157 10.9223C9.052 10.8307 8.9545 10.7307 8.8545 10.634C8.52665 10.32 8.24093 9.96485 8.0045 9.57734L7.95534 9.49817C7.92002 9.44497 7.89147 9.38759 7.87034 9.32734C7.83867 9.20484 7.92117 9.1065 7.92117 9.1065C7.92117 9.1065 8.12367 8.88484 8.21784 8.76484C8.29625 8.6651 8.3694 8.56135 8.437 8.454C8.53534 8.29567 8.56617 8.13317 8.5145 8.00734C8.28117 7.43734 8.0395 6.86984 7.79117 6.3065C7.742 6.19484 7.59617 6.11484 7.46367 6.099C7.41867 6.094 7.37367 6.089 7.32867 6.08567C7.21676 6.08011 7.10462 6.08122 6.99284 6.089V6.08984Z" fill="#FEFEFF"/>
</svg>
