<svg width="18" height="18" viewBox="0 0 18 18" fill="none" xmlns="http://www.w3.org/2000/svg">
<path fill-rule="evenodd" clip-rule="evenodd" d="M17.3337 9.00008C17.3337 13.6022 13.6024 17.3334 9.00033 17.3334C4.39824 17.3334 0.666992 13.6022 0.666992 9.00008C0.666992 4.398 4.39824 0.666748 9.00033 0.666748C13.6024 0.666748 17.3337 4.398 17.3337 9.00008ZM9.29894 6.81883C8.48852 7.15564 6.86838 7.85355 4.43921 8.91189C4.04477 9.06883 3.83783 9.2223 3.81908 9.3723C3.78713 9.62647 4.10519 9.72647 4.53713 9.86189C4.59616 9.88064 4.65727 9.89939 4.71977 9.92022C5.14546 10.0584 5.71769 10.2202 6.01491 10.2265C6.28505 10.232 6.58644 10.1209 6.91908 9.89314C9.18852 8.3605 10.36 7.58619 10.4337 7.56953C10.4857 7.55772 10.558 7.54244 10.6066 7.58619C10.6552 7.62925 10.6503 7.71119 10.6455 7.73341C10.6135 7.86744 9.36769 9.02647 8.72185 9.62647C8.52046 9.81328 8.3781 9.94592 8.34894 9.97647C8.28366 10.0438 8.21699 10.1084 8.1531 10.1702C7.75727 10.5508 7.46144 10.8369 8.16977 11.3036C8.51005 11.5279 8.78227 11.7133 9.0538 11.898C9.35033 12.1001 9.64616 12.3015 10.0295 12.5529C10.1267 12.6167 10.2198 12.6827 10.3107 12.7473C10.6559 12.9938 10.9663 13.2147 11.3496 13.1799C11.5719 13.1591 11.8024 12.9501 11.9191 12.3258C12.1948 10.8494 12.7378 7.65217 12.8635 6.33411C12.8712 6.22467 12.8665 6.11473 12.8496 6.00633C12.8395 5.91878 12.7969 5.83823 12.7302 5.78064C12.6309 5.69939 12.4767 5.68203 12.4073 5.68341C12.0941 5.68897 11.6135 5.85633 9.29894 6.81883Z" fill="#1D1D20"/>
</svg>
