<svg width="12" height="14" viewBox="0 0 12 14" fill="none" xmlns="http://www.w3.org/2000/svg">
<path fill-rule="evenodd" clip-rule="evenodd" d="M0.333313 5.87867C0.333313 2.81209 2.8959 0.333496 5.99561 0.333496C9.10406 0.333496 11.6666 2.81209 11.6666 5.87867C11.6666 7.42396 11.1047 8.85858 10.1796 10.0745C9.15918 11.4158 7.90142 12.5845 6.48567 13.5018C6.16165 13.7138 5.86923 13.7298 5.51361 13.5018C4.0898 12.5845 2.83204 11.4158 1.82031 10.0745C0.894635 8.85858 0.333313 7.42396 0.333313 5.87867ZM4.12947 6.05133C4.12947 7.07863 4.96776 7.88661 5.99562 7.88661C7.02415 7.88661 7.8705 7.07863 7.8705 6.05133C7.8705 5.03203 7.02415 4.18472 5.99562 4.18472C4.96776 4.18472 4.12947 5.03203 4.12947 6.05133Z" fill="#FEFEFF"/>
</svg>
