<svg width="14" height="14" viewBox="0 0 14 14" fill="none" xmlns="http://www.w3.org/2000/svg">
<path fill-rule="evenodd" clip-rule="evenodd" d="M4.11325 0.333496H9.89325C12.1533 0.333496 13.6666 1.9195 13.6666 4.2795V9.72616C13.6666 12.0802 12.1533 13.6668 9.89325 13.6668H4.11325C1.85325 13.6668 0.333252 12.0802 0.333252 9.72616V4.2795C0.333252 1.9195 1.85325 0.333496 4.11325 0.333496ZM9.38659 9.54016C9.55325 9.54016 9.71992 9.4535 9.81325 9.2935C9.95992 9.05949 9.87992 8.75283 9.63992 8.60683L7.26659 7.1935V4.11283C7.26659 3.84016 7.04659 3.61283 6.76659 3.61283C6.49325 3.61283 6.26659 3.84016 6.26659 4.11283V7.48016C6.26659 7.6535 6.35992 7.82016 6.51325 7.90683L9.12659 9.46683C9.20659 9.52016 9.29992 9.54016 9.38659 9.54016Z" fill="#FEFEFF"/>
</svg>
