<svg width="168" height="101" viewBox="0 0 168 101" fill="none" xmlns="http://www.w3.org/2000/svg">
<g clip-path="url(#clip0_429:4108)" filter="url(#filter0_d_429:4108)">
<rect width="160" height="93" transform="translate(4)" fill="white"/>
<g opacity="0.1">
<path opacity="0.1" d="M121.638 91.6284C123.346 91.6284 124.73 89.8148 124.73 87.5777C124.73 85.3405 123.346 83.5269 121.638 83.5269C119.93 83.5269 118.546 85.3405 118.546 87.5777C118.546 89.8148 119.93 91.6284 121.638 91.6284Z" fill="#3F3D56"/>
<path opacity="0.1" d="M124.084 70.2478C124.517 69.4952 124.742 68.6405 124.735 67.772C124.735 65.5301 123.351 63.7212 121.643 63.7212C119.935 63.7212 118.552 65.5343 118.552 67.772C118.543 68.64 118.766 69.4947 119.197 70.2478C118.774 71.0041 118.552 71.8563 118.552 72.723C118.552 73.5898 118.774 74.442 119.197 75.1982C118.774 75.9546 118.552 76.8071 118.552 77.6741C118.552 78.541 118.774 79.3935 119.197 80.1499C118.766 80.9031 118.543 81.7577 118.552 82.6258C118.552 84.8677 119.936 86.6766 121.643 86.6766C123.349 86.6766 124.735 84.8635 124.735 82.6258C124.744 81.7577 124.521 80.9031 124.09 80.1499C124.513 79.3935 124.735 78.541 124.735 77.6741C124.735 76.8071 124.513 75.9546 124.09 75.1982C124.513 74.442 124.735 73.5898 124.735 72.723C124.735 71.8563 124.513 71.0041 124.09 70.2478H124.084Z" fill="#3F3D56"/>
<path opacity="0.1" d="M121.638 66.8726C123.346 66.8726 124.73 65.059 124.73 62.8218C124.73 60.5846 123.346 58.771 121.638 58.771C119.93 58.771 118.546 60.5846 118.546 62.8218C118.546 65.059 119.93 66.8726 121.638 66.8726Z" fill="#3F3D56"/>
<path opacity="0.1" d="M121.638 61.9209C123.346 61.9209 124.73 60.1073 124.73 57.8701C124.73 55.6329 123.346 53.8193 121.638 53.8193C119.93 53.8193 118.546 55.6329 118.546 57.8701C118.546 60.1073 119.93 61.9209 121.638 61.9209Z" fill="#3F3D56"/>
<path opacity="0.1" d="M133.211 23.9869C133.633 23.4483 134.018 22.8814 134.362 22.29L126.243 20.9547L135.03 21.0206C135.872 19.1849 136.331 17.1965 136.379 15.1771C136.427 13.1578 136.063 11.1498 135.309 9.27595L123.52 15.3935L134.394 7.39838C133.375 5.63807 132.005 4.10656 130.369 2.89918C128.733 1.69179 126.866 0.834372 124.885 0.380296C122.904 -0.0737791 120.851 -0.114793 118.853 0.259807C116.855 0.634408 114.956 1.4166 113.273 2.55771C111.59 3.69881 110.16 5.17439 109.072 6.89261C107.983 8.61082 107.26 10.5349 106.947 12.545C106.633 14.5552 106.737 16.6084 107.25 18.5768C107.764 20.5453 108.677 22.3868 109.932 23.9869C109.274 24.8246 108.708 25.7307 108.244 26.6897L118.789 32.1739L107.545 28.3907C106.754 30.7259 106.558 33.2217 106.973 35.6522C107.389 38.0827 108.403 40.371 109.925 42.31C108.207 44.4964 107.138 47.1227 106.841 49.8885C106.544 52.6543 107.03 55.448 108.244 57.9503C109.458 60.4525 111.351 62.5623 113.707 64.0383C116.062 65.5144 118.786 66.2971 121.565 66.2971C124.344 66.2971 127.067 65.5144 129.422 64.0383C131.778 62.5623 133.671 60.4525 134.885 57.9503C136.099 55.448 136.586 52.6543 136.288 49.8885C135.991 47.1227 134.922 44.4964 133.204 42.31C135.257 39.6973 136.374 36.4697 136.374 33.1456C136.374 29.8215 135.257 26.5939 133.204 23.9813L133.211 23.9869Z" fill="#B72434"/>
<path opacity="0.1" d="M106.763 33.152C106.758 36.4767 107.874 39.7057 109.932 42.3157C108.214 44.5021 107.145 47.1284 106.848 49.8942C106.55 52.66 107.037 55.4537 108.251 57.956C109.465 60.4582 111.358 62.5679 113.714 64.044C116.069 65.52 118.792 66.3028 121.571 66.3028C124.351 66.3028 127.074 65.52 129.429 64.044C131.785 62.5679 133.678 60.4582 134.892 57.956C136.106 55.4537 136.592 52.66 136.295 49.8942C135.998 47.1284 134.929 44.5021 133.211 42.3157C135.196 39.7935 106.763 31.4874 106.763 33.152Z" fill="black"/>
</g>
<g opacity="0.1">
<path opacity="0.1" d="M34.9097 87.2959C35.9487 87.2959 36.791 86.1918 36.791 84.8298C36.791 83.4679 35.9487 82.3638 34.9097 82.3638C33.8706 82.3638 33.0283 83.4679 33.0283 84.8298C33.0283 86.1918 33.8706 87.2959 34.9097 87.2959Z" fill="#3F3D56"/>
<path opacity="0.1" d="M36.4061 74.2804C36.6687 73.8217 36.8045 73.3013 36.7995 72.7727C36.7995 71.4108 35.9596 70.3066 34.9167 70.3066C33.8738 70.3066 33.0353 71.4108 33.0353 72.7727C33.0299 73.3012 33.1651 73.8216 33.4273 74.2804C33.1703 74.741 33.0354 75.2598 33.0354 75.7873C33.0354 76.3149 33.1703 76.8337 33.4273 77.2943C33.1703 77.7549 33.0354 78.2737 33.0354 78.8012C33.0354 79.3288 33.1703 79.8476 33.4273 80.3082C33.1649 80.7664 33.0296 81.2864 33.0353 81.8145C33.0353 83.1778 33.8752 84.2819 34.9167 84.2819C35.9582 84.2819 36.7995 83.1778 36.7995 81.8145C36.8047 81.2863 36.6689 80.7663 36.4061 80.3082C36.6638 79.8478 36.7992 79.329 36.7992 78.8012C36.7992 78.2735 36.6638 77.7546 36.4061 77.2943C36.6638 76.8339 36.7992 76.315 36.7992 75.7873C36.7992 75.2596 36.6638 74.7407 36.4061 74.2804Z" fill="#3F3D56"/>
<path opacity="0.1" d="M34.9097 72.2249C35.9487 72.2249 36.791 71.1208 36.791 69.7588C36.791 68.3968 35.9487 67.2927 34.9097 67.2927C33.8706 67.2927 33.0283 68.3968 33.0283 69.7588C33.0283 71.1208 33.8706 72.2249 34.9097 72.2249Z" fill="#3F3D56"/>
<path opacity="0.1" d="M34.9097 69.2109C35.9487 69.2109 36.791 68.1068 36.791 66.7449C36.791 65.3829 35.9487 64.2788 34.9097 64.2788C33.8706 64.2788 33.0283 65.3829 33.0283 66.7449C33.0283 68.1068 33.8706 69.2109 34.9097 69.2109Z" fill="#3F3D56"/>
<path opacity="0.1" d="M27.8675 46.1169C27.6105 45.7893 27.3766 45.4443 27.1675 45.0842L32.1131 44.2716L26.7644 44.3122C26.2523 43.1952 25.973 41.9855 25.9434 40.7569C25.9138 39.5283 26.1345 38.3066 26.5922 37.1662L33.7635 40.8947L27.1465 36.0187C27.7672 34.9478 28.6013 34.0162 29.5971 33.2818C30.5928 32.5474 31.7289 32.026 32.9346 31.75C34.1404 31.474 35.3899 31.4493 36.6056 31.6775C37.8212 31.9056 38.977 32.3817 40.0009 33.0762C41.0249 33.7706 41.8951 34.6685 42.5575 35.714C43.2199 36.7596 43.6602 37.9304 43.8512 39.1536C44.0421 40.3768 43.9795 41.6262 43.6673 42.8241C43.3551 44.0221 42.8 45.1429 42.0365 46.1169C42.437 46.6262 42.7815 47.1772 43.0639 47.7605L36.6444 51.1009L43.4895 48.8015C43.9702 50.2236 44.0891 51.7433 43.8354 53.2229C43.5817 54.7026 42.9634 56.0956 42.0365 57.2758C43.0823 58.6069 43.7328 60.2056 43.9137 61.8893C44.0946 63.5729 43.7986 65.2736 43.0594 66.7968C42.3203 68.3199 41.1678 69.6042 39.7339 70.5027C38.2999 71.4012 36.6423 71.8777 34.9506 71.8777C33.2588 71.8777 31.6012 71.4012 30.1673 70.5027C28.7333 69.6042 27.5809 68.3199 26.8417 66.7968C26.1025 65.2736 25.8065 63.5729 25.9874 61.8893C26.1683 60.2056 26.8188 58.6069 27.8646 57.2758C26.6149 55.6851 25.9355 53.7201 25.9355 51.6964C25.9355 49.6727 26.6149 47.7077 27.8646 46.1169H27.8675Z" fill="#B72434"/>
<path opacity="0.1" d="M43.9653 51.6963C43.9683 53.7205 43.2886 55.6864 42.0363 57.2758C43.0822 58.6068 43.7327 60.2056 43.9136 61.8892C44.0945 63.5729 43.7985 65.2735 43.0593 66.7967C42.3201 68.3199 41.1677 69.6042 39.7337 70.5027C38.2998 71.4012 36.6422 71.8777 34.9504 71.8777C33.2587 71.8777 31.6011 71.4012 30.1671 70.5027C28.7332 69.6042 27.5807 68.3199 26.8416 66.7967C26.1024 65.2735 25.8063 63.5729 25.9872 61.8892C26.1681 60.2056 26.8187 58.6068 27.8645 57.2758C26.6565 55.7471 43.9653 50.6833 43.9653 51.6963Z" fill="black"/>
</g>
<g opacity="0.1">
<path opacity="0.1" d="M77.3249 89.4423C78.7157 89.4423 79.8432 87.9649 79.8432 86.1425C79.8432 84.3201 78.7157 82.8428 77.3249 82.8428C75.9341 82.8428 74.8066 84.3201 74.8066 86.1425C74.8066 87.9649 75.9341 89.4423 77.3249 89.4423Z" fill="#3F3D56"/>
<path opacity="0.1" d="M79.3184 72.0245C79.6693 71.4105 79.8505 70.7141 79.8433 70.0068C79.8433 68.1853 78.7234 66.707 77.3236 66.707C75.9238 66.707 74.8039 68.1853 74.8039 70.0068C74.7965 70.7143 74.9782 71.4109 75.3303 72.0245C74.9852 72.6406 74.804 73.3351 74.804 74.0415C74.804 74.7478 74.9852 75.4423 75.3303 76.0585C74.9852 76.6743 74.804 77.3686 74.804 78.0747C74.804 78.7809 74.9852 79.4751 75.3303 80.091C74.9782 80.7046 74.7965 81.4012 74.8039 82.1087C74.8039 83.9302 75.9322 85.4085 77.3236 85.4085C78.715 85.4085 79.8433 83.9302 79.8433 82.1087C79.8505 81.4014 79.6693 80.705 79.3184 80.091C79.6626 79.4749 79.8434 78.7807 79.8434 78.0747C79.8434 77.3688 79.6626 76.6746 79.3184 76.0585C79.6626 75.4421 79.8434 74.7476 79.8434 74.0415C79.8434 73.3353 79.6626 72.6409 79.3184 72.0245Z" fill="#3F3D56"/>
<path opacity="0.1" d="M77.3249 69.2738C78.7157 69.2738 79.8432 67.7965 79.8432 65.9741C79.8432 64.1517 78.7157 62.6743 77.3249 62.6743C75.9341 62.6743 74.8066 64.1517 74.8066 65.9741C74.8066 67.7965 75.9341 69.2738 77.3249 69.2738Z" fill="#3F3D56"/>
<path opacity="0.1" d="M77.3249 65.2399C78.7157 65.2399 79.8432 63.7626 79.8432 61.9401C79.8432 60.1177 78.7157 58.6404 77.3249 58.6404C75.9341 58.6404 74.8066 60.1177 74.8066 61.9401C74.8066 63.7626 75.9341 65.2399 77.3249 65.2399Z" fill="#3F3D56"/>
<path opacity="0.1" d="M67.9023 34.337C67.5581 33.8988 67.2447 33.4372 66.9644 32.9555L73.5814 31.8681L66.4255 31.9214C65.7389 30.426 65.3643 28.8062 65.3245 27.1609C65.2848 25.5157 65.5809 23.8796 66.1945 22.3528L75.7973 27.3382L66.9406 20.8227C67.7681 19.3834 68.8832 18.1303 70.2163 17.1418C71.5494 16.1533 73.0719 15.4507 74.6885 15.0778C76.3052 14.7048 77.9813 14.6696 79.6122 14.9744C81.243 15.2792 82.7936 15.9173 84.1669 16.849C85.5403 17.7806 86.7069 18.9858 87.5939 20.3892C88.4809 21.7925 89.0692 23.3639 89.3221 25.0051C89.575 26.6464 89.487 28.3221 89.0637 29.9278C88.6403 31.5334 87.8906 33.0345 86.8616 34.337C87.3974 35.0197 87.8583 35.7582 88.2362 36.5397L79.6469 41.0066L88.8059 37.924C89.4493 39.8269 89.6085 41.8604 89.269 43.8404C88.9295 45.8204 88.1021 47.6844 86.8616 49.2637C88.2611 51.0449 89.1316 53.1843 89.3737 55.4374C89.6158 57.6904 89.2196 59.9662 88.2304 62.0045C87.2413 64.0429 85.6991 65.7614 83.7802 66.9638C81.8612 68.1662 79.643 68.8038 77.3791 68.8038C75.1153 68.8038 72.8971 68.1662 70.9781 66.9638C69.0592 65.7614 67.517 64.0429 66.5279 62.0045C65.5387 59.9662 65.1425 57.6904 65.3846 55.4374C65.6267 53.1843 66.4972 51.0449 67.8967 49.2637C66.2246 47.1349 65.3155 44.5055 65.3155 41.7976C65.3155 39.0896 66.2246 36.4602 67.8967 34.3314L67.9023 34.337Z" fill="#B72434"/>
<path opacity="0.1" d="M89.4428 41.8039C89.447 44.5124 88.5375 47.1429 86.8615 49.2693C88.261 51.0505 89.1316 53.19 89.3737 55.443C89.6157 57.6961 89.2195 59.9719 88.2304 62.0102C87.2412 64.0485 85.699 65.7671 83.7801 66.9694C81.8612 68.1718 79.643 68.8095 77.3791 68.8095C75.1152 68.8095 72.8971 68.1718 70.9781 66.9694C69.0592 65.7671 67.517 64.0485 66.5279 62.0102C65.5387 59.9719 65.1425 57.6961 65.3846 55.443C65.6267 53.19 66.4972 51.0505 67.8967 49.2693C66.2799 47.2152 89.4428 40.4476 89.4428 41.8039Z" fill="black"/>
</g>
<path d="M164 89.1454C164 90.108 156.97 90.9879 145.347 91.6675C143.233 91.7894 140.968 91.9057 138.566 92.015C136.491 92.1084 134.316 92.1967 132.04 92.2798C129.836 92.3583 127.547 92.4311 125.174 92.4984C117.68 92.7128 109.394 92.8669 100.592 92.944C98.4558 92.9636 96.2912 92.9785 94.0981 92.9888C91.8136 92.9991 89.503 93.0037 87.1662 93.0028C44.7319 93.0028 10.334 91.278 10.334 89.1496C10.334 87.0212 44.7319 85.2964 87.1662 85.2964C105.435 85.2964 122.212 85.6172 135.399 86.1497L136.84 86.2085H136.849C153.459 86.9133 164 87.974 164 89.1454Z" fill="#3F3D56"/>
<path opacity="0.15" d="M164 89.1454C164 90.108 156.97 90.9879 145.347 91.6675C143.233 91.7894 140.968 91.9057 138.566 92.015C136.491 92.1084 134.316 92.1967 132.04 92.2798C129.836 92.3583 127.547 92.4311 125.174 92.4984C117.68 92.7128 109.394 92.8669 100.592 92.944C98.4558 92.9636 96.2912 92.9785 94.0981 92.9888C91.8136 92.9991 89.503 93.0037 87.1662 93.0028C44.7319 93.0028 10.334 91.278 10.334 89.1496C10.334 87.0212 44.7319 85.2964 87.1662 85.2964C105.435 85.2964 122.212 85.6172 135.399 86.1497L136.84 86.2085H136.849C153.459 86.9133 164 87.974 164 89.1454Z" fill="black"/>
<path d="M157.666 88.4671C157.666 89.2714 150.636 90.0084 139.013 90.5689C136.901 90.6712 134.634 90.7679 132.234 90.8589C130.157 90.9374 127.982 91.0112 125.708 91.0803C123.504 91.1457 121.215 91.2069 118.842 91.2639C111.346 91.4432 103.06 91.5721 94.2579 91.6366C92.1236 91.6525 89.9591 91.6646 87.7641 91.673C85.4796 91.6814 83.1694 91.6856 80.8336 91.6856C38.3993 91.6856 4 90.2438 4 88.4629C4 86.682 38.3993 85.2402 80.8336 85.2402C99.1013 85.2402 115.878 85.5079 129.065 85.9534L130.506 86.0025H130.516C147.132 86.6008 157.666 87.4821 157.666 88.4671Z" fill="#3F3D56"/>
<path d="M23.844 59.1925L21.915 53.281L68.1093 52.7751L70.0018 58.6278L23.844 59.1925Z" fill="#3F3D56"/>
<path opacity="0.15" d="M23.844 59.1925L21.915 53.281L68.1093 52.7751L70.0018 58.6278L23.844 59.1925Z" fill="black"/>
<path d="M20.7639 59.1925L18.835 53.281L65.0292 52.7751L66.9217 58.6278L20.7639 59.1925Z" fill="#3F3D56"/>
<path d="M99.6236 50.1086C94.8474 50.1086 91.0833 48.211 88.3312 44.4156C85.5792 40.6203 84.2031 36.0226 84.2031 30.6225C84.2031 25.186 85.5339 20.5976 88.1954 16.8574C90.857 13.1172 94.6113 11.249 99.4584 11.2527C104.599 11.2527 108.471 13.2232 111.077 17.1642C113.682 21.1053 114.986 25.6666 114.987 30.8481C114.987 35.9923 113.638 40.4891 110.941 44.3386C108.244 48.1881 104.472 50.1114 99.6236 50.1086ZM99.7636 45.8392C102.906 45.8392 105.254 44.4684 106.809 41.7268C108.364 38.9852 109.141 35.5289 109.141 31.3581C109.141 26.7156 108.345 22.9142 106.754 19.954C105.163 16.9938 102.723 15.5132 99.4332 15.5123C93.1807 15.5123 90.0544 20.4836 90.0544 30.4263C90.0544 40.7025 93.2899 45.8402 99.7608 45.8392H99.7636ZM101.337 86.724H94.4288L139.654 12.0135H146.432L101.337 86.724ZM141.347 87.4905C136.499 87.4905 132.719 85.5755 130.008 81.7457C127.297 77.9158 125.936 73.3176 125.925 67.9511C125.925 62.551 127.246 57.9809 129.889 54.2407C132.532 50.5005 136.296 48.6322 141.18 48.636C146.284 48.636 150.13 50.6065 152.718 54.5475C155.305 58.4886 156.6 63.0494 156.601 68.23C156.601 73.3405 155.261 77.8289 152.582 81.6952C149.902 85.5615 146.157 87.4933 141.344 87.4905H141.347ZM141.428 83.1118C144.555 83.1118 146.891 81.7644 148.435 79.0694C149.98 76.3745 150.752 72.9323 150.752 68.7428C150.752 64.259 149.971 60.4988 148.407 57.462C146.844 54.4251 144.409 52.9044 141.102 52.8997C134.813 52.8997 131.668 57.8711 131.668 67.8138C131.667 78.0134 134.919 83.1128 141.425 83.1118H141.428Z" fill="#3F3D56"/>
<path d="M99.6236 50.1086C94.8474 50.1086 91.0833 48.211 88.3312 44.4156C85.5792 40.6203 84.2031 36.0226 84.2031 30.6225C84.2031 25.186 85.5339 20.5976 88.1954 16.8574C90.857 13.1172 94.6113 11.249 99.4584 11.2527C104.599 11.2527 108.471 13.2232 111.077 17.1642C113.682 21.1053 114.986 25.6666 114.987 30.8481C114.987 35.9923 113.638 40.4891 110.941 44.3386C108.244 48.1881 104.472 50.1114 99.6236 50.1086ZM99.7636 45.8392C102.906 45.8392 105.254 44.4684 106.809 41.7268C108.364 38.9852 109.141 35.5289 109.141 31.3581C109.141 26.7156 108.345 22.9142 106.754 19.954C105.163 16.9938 102.723 15.5132 99.4332 15.5123C93.1807 15.5123 90.0544 20.4836 90.0544 30.4263C90.0544 40.7025 93.2899 45.8402 99.7608 45.8392H99.7636ZM101.337 86.724H94.4288L139.654 12.0135H146.432L101.337 86.724ZM141.347 87.4905C136.499 87.4905 132.719 85.5755 130.008 81.7457C127.297 77.9158 125.936 73.3176 125.925 67.9511C125.925 62.551 127.246 57.9809 129.889 54.2407C132.532 50.5005 136.296 48.6322 141.18 48.636C146.284 48.636 150.13 50.6065 152.718 54.5475C155.305 58.4886 156.6 63.0494 156.601 68.23C156.601 73.3405 155.261 77.8289 152.582 81.6952C149.902 85.5615 146.157 87.4933 141.344 87.4905H141.347ZM141.428 83.1118C144.555 83.1118 146.891 81.7644 148.435 79.0694C149.98 76.3745 150.752 72.9323 150.752 68.7428C150.752 64.259 149.971 60.4988 148.407 57.462C146.844 54.4251 144.409 52.9044 141.102 52.8997C134.813 52.8997 131.668 57.8711 131.668 67.8138C131.667 78.0134 134.919 83.1128 141.425 83.1118H141.428Z" fill="#3F3D56"/>
<path opacity="0.15" d="M99.6236 50.1086C94.8474 50.1086 91.0833 48.211 88.3312 44.4156C85.5792 40.6203 84.2031 36.0226 84.2031 30.6225C84.2031 25.186 85.5339 20.5976 88.1954 16.8574C90.857 13.1172 94.6113 11.249 99.4584 11.2527C104.599 11.2527 108.471 13.2232 111.077 17.1642C113.682 21.1053 114.986 25.6666 114.987 30.8481C114.987 35.9923 113.638 40.4891 110.941 44.3386C108.244 48.1881 104.472 50.1114 99.6236 50.1086ZM99.7636 45.8392C102.906 45.8392 105.254 44.4684 106.809 41.7268C108.364 38.9852 109.141 35.5289 109.141 31.3581C109.141 26.7156 108.345 22.9142 106.754 19.954C105.163 16.9938 102.723 15.5132 99.4332 15.5123C93.1807 15.5123 90.0544 20.4836 90.0544 30.4263C90.0544 40.7025 93.2899 45.8402 99.7608 45.8392H99.7636ZM101.337 86.724H94.4288L139.654 12.0135H146.432L101.337 86.724ZM141.347 87.4905C136.499 87.4905 132.719 85.5755 130.008 81.7457C127.297 77.9158 125.936 73.3176 125.925 67.9511C125.925 62.551 127.246 57.9809 129.889 54.2407C132.532 50.5005 136.296 48.6322 141.18 48.636C146.284 48.636 150.13 50.6065 152.718 54.5475C155.305 58.4886 156.6 63.0494 156.601 68.23C156.601 73.3405 155.261 77.8289 152.582 81.6952C149.902 85.5615 146.157 87.4933 141.344 87.4905H141.347ZM141.428 83.1118C144.555 83.1118 146.891 81.7644 148.435 79.0694C149.98 76.3745 150.752 72.9323 150.752 68.7428C150.752 64.259 149.971 60.4988 148.407 57.462C146.844 54.4251 144.409 52.9044 141.102 52.8997C134.813 52.8997 131.668 57.8711 131.668 67.8138C131.667 78.0134 134.919 83.1128 141.425 83.1118H141.428Z" fill="black"/>
<path d="M95.2837 50.1086C90.5075 50.1086 86.7434 48.211 83.9914 44.4156C81.2393 40.6203 79.8633 36.0226 79.8633 30.6225C79.8633 25.186 81.194 20.5976 83.8556 16.8574C86.5171 13.1172 90.2714 11.249 95.1186 11.2527C100.259 11.2527 104.132 13.2232 106.737 17.1642C109.343 21.1053 110.646 25.6666 110.647 30.8481C110.647 35.9923 109.298 40.4891 106.601 44.3386C103.904 48.1881 100.132 50.1114 95.2837 50.1086ZM95.4237 45.8392C98.5659 45.8392 100.914 44.4684 102.469 41.7268C104.024 38.9852 104.801 35.5289 104.801 31.3581C104.801 26.7156 104.006 22.9142 102.414 19.954C100.823 16.9938 98.383 15.5132 95.0934 15.5123C88.8408 15.5123 85.7145 20.4836 85.7145 30.4263C85.7145 40.7025 88.95 45.8402 95.4209 45.8392H95.4237ZM96.9971 86.724H90.089L135.315 12.0135H142.092L96.9971 86.724ZM137.007 87.4905C132.159 87.4905 128.379 85.5755 125.668 81.7457C122.957 77.9158 121.596 73.3176 121.585 67.9511C121.585 62.551 122.906 57.9809 125.549 54.2407C128.192 50.5005 131.956 48.6322 136.84 48.636C141.944 48.636 145.79 50.6065 148.378 54.5475C150.965 58.4886 152.26 63.0494 152.261 68.23C152.261 73.3405 150.921 77.8289 148.242 81.6952C145.563 85.5615 141.817 87.4933 137.004 87.4905H137.007ZM137.088 83.1118C140.215 83.1118 142.551 81.7644 144.096 79.0694C145.64 76.3745 146.412 72.9323 146.412 68.7428C146.412 64.259 145.631 60.4988 144.068 57.462C142.504 54.4251 140.068 52.9044 136.759 52.8997C130.47 52.8997 127.326 57.8711 127.326 67.8138C127.326 78.0134 130.579 83.1128 137.085 83.1118H137.088Z" fill="#3F3D56"/>
<path d="M110.397 88.5988C110.973 87.5284 110.318 86.2169 109.565 85.2613C108.812 84.3057 107.894 83.3136 107.913 82.096C107.941 80.3487 109.795 79.3161 111.273 78.3885C112.372 77.7011 113.386 76.8855 114.294 75.9589C114.674 75.6019 114.988 75.1807 115.222 74.7146C115.528 74.0309 115.519 73.2532 115.502 72.505C115.437 70.009 115.314 67.5168 115.132 65.0283" stroke="#3F3D56" stroke-width="4" stroke-miterlimit="10"/>
<path d="M117.949 64.8912C117.928 64.4346 117.792 63.9907 117.555 63.6004C117.317 63.21 116.985 62.8859 116.59 62.6577L115.98 63.8655L115.998 62.4027C115.707 62.3176 115.403 62.2811 115.1 62.2948C114.562 62.3201 114.044 62.5045 113.61 62.8247C113.177 63.145 112.848 63.5867 112.665 64.0941C112.483 64.6014 112.454 65.1515 112.584 65.6749C112.714 66.1984 112.996 66.6715 113.394 67.0346C113.792 67.3977 114.289 67.6343 114.822 67.7147C115.355 67.7951 115.899 67.7155 116.387 67.4861C116.874 67.2567 117.283 66.8877 117.561 66.4258C117.839 65.9639 117.974 65.4299 117.949 64.8912Z" fill="#B72434"/>
<path d="M113.091 83.3501C112.805 83.906 112.337 84.3466 111.765 84.5981C111.193 84.8496 110.552 84.8966 109.95 84.7313C109.348 84.5659 108.82 84.1983 108.457 83.6901C108.093 83.1819 107.915 82.5639 107.952 81.9398C107.99 81.3157 108.24 80.7235 108.662 80.2624C109.084 79.8013 109.651 79.4995 110.269 79.4074C110.887 79.3153 111.517 79.4387 112.055 79.7568C112.593 80.0749 113.005 80.5684 113.222 81.1545L111.52 82.5402L113.396 82.1031C113.395 82.5372 113.291 82.9648 113.091 83.3501Z" fill="#B72434"/>
<path d="M111.747 78.0524C111.389 78.0691 111.032 78.0153 110.695 77.8939C110.359 77.7724 110.049 77.5859 109.785 77.3448C109.52 77.1037 109.306 76.8128 109.154 76.4887C109.001 76.1646 108.915 75.8137 108.898 75.456C108.877 75.0289 108.957 74.6029 109.133 74.2131C109.296 73.8489 109.536 73.5248 109.838 73.2636C110.139 73.0024 110.494 72.8104 110.877 72.7013L110.862 73.8222L111.479 72.6004C112.201 72.5666 112.906 72.8211 113.441 73.308C113.975 73.795 114.294 74.4743 114.328 75.1968C114.362 75.9192 114.107 76.6254 113.621 77.1602C113.134 77.6949 112.456 78.0143 111.734 78.0481L111.747 78.0524Z" fill="#B72434"/>
<path d="M118.359 73.6484C117.998 73.6725 117.635 73.6241 117.292 73.5061C116.949 73.3881 116.634 73.2029 116.363 72.9613C116.093 72.7197 115.874 72.4266 115.718 72.0991C115.562 71.7715 115.473 71.4162 115.456 71.0539C115.439 70.6915 115.495 70.3294 115.619 69.9888C115.744 69.6481 115.935 69.3357 116.181 69.0699C116.428 68.8041 116.725 68.5902 117.055 68.4407C117.385 68.2912 117.742 68.2091 118.104 68.1992C118.613 68.1744 119.119 68.2944 119.563 68.5453L119.081 69.8652L120.073 68.9138C120.604 69.3992 120.922 70.076 120.956 70.7956C120.968 71.048 120.945 71.3009 120.886 71.5467C120.75 72.1244 120.43 72.6421 119.974 73.0214C119.518 73.4007 118.951 73.6208 118.359 73.6484Z" fill="#B72434"/>
<path opacity="0.1" d="M117.582 65.6184C116.953 65.687 116.343 65.8832 115.712 65.9224C115.08 65.9617 114.388 65.8103 113.989 65.3185C113.773 65.0551 113.667 64.7202 113.485 64.4316C113.313 64.1629 113.077 63.941 112.799 63.7856C112.624 64.1313 112.525 64.5102 112.508 64.8972C112.49 65.2843 112.556 65.6705 112.7 66.0302C112.843 66.3899 113.062 66.7148 113.341 66.9833C113.62 67.2518 113.953 67.4576 114.318 67.5872C114.683 67.7168 115.071 67.767 115.457 67.7347C115.842 67.7023 116.217 67.588 116.555 67.3995C116.893 67.211 117.187 66.9525 117.417 66.6412C117.648 66.33 117.809 65.9732 117.891 65.5946C117.788 65.6002 117.686 65.6072 117.582 65.6184Z" fill="black"/>
<path opacity="0.1" d="M118.359 73.6484C117.889 73.6699 117.422 73.5695 117.003 73.3571C116.584 73.1446 116.227 72.8274 115.966 72.436C115.705 72.0447 115.55 71.5926 115.515 71.1235C115.481 70.6544 115.568 70.1843 115.768 69.7588C115.984 69.9052 116.169 70.0916 116.315 70.308C116.51 70.6009 116.627 70.94 116.855 71.209C117.275 71.7092 118.005 71.8718 118.661 71.8423C119.318 71.8129 119.953 71.6252 120.608 71.5621C120.699 71.5537 120.792 71.5481 120.888 71.5453C120.753 72.1237 120.433 72.6421 119.976 73.0217C119.52 73.4013 118.952 73.6214 118.359 73.6484Z" fill="black"/>
<path opacity="0.1" d="M111.747 78.0523C111.389 78.0691 111.032 78.0153 110.695 77.8938C110.359 77.7724 110.049 77.5858 109.785 77.3447C109.52 77.1037 109.306 76.8128 109.154 76.4887C109.001 76.1646 108.915 75.8137 108.898 75.456C108.877 75.0289 108.957 74.6029 109.133 74.2131C109.358 74.3629 109.553 74.5529 109.708 74.7736C109.92 75.0721 110.053 75.4167 110.3 75.6928C110.76 76.2042 111.532 76.3849 112.228 76.3681C112.924 76.3513 113.552 76.1888 114.223 76.1369C114.057 76.6722 113.73 77.1431 113.287 77.4858C112.844 77.8286 112.306 78.0264 111.747 78.0523Z" fill="black"/>
<path opacity="0.1" d="M113.091 83.3501C112.774 83.9736 112.23 84.4514 111.571 84.6844C110.912 84.9175 110.189 84.8881 109.551 84.6023C108.913 84.3165 108.409 83.7961 108.143 83.1489C107.878 82.5016 107.871 81.777 108.125 81.125C108.349 81.2727 108.55 81.4526 108.722 81.6588C108.981 81.9755 109.152 82.3342 109.452 82.6285C110.012 83.1749 110.908 83.4005 111.708 83.4215C112.17 83.4253 112.632 83.4014 113.091 83.3501Z" fill="black"/>
<path d="M152.53 88.4587C153.107 87.3882 152.452 86.0767 151.699 85.1211C150.946 84.1655 150.028 83.1735 150.047 81.9559C150.075 80.2086 151.929 79.1759 153.407 78.2484C154.506 77.5609 155.52 76.7453 156.428 75.8187C156.808 75.4618 157.122 75.0406 157.356 74.5745C157.662 73.8907 157.652 73.1131 157.636 72.3648C157.571 69.8689 157.448 67.3767 157.266 64.8882" stroke="#3F3D56" stroke-width="4" stroke-miterlimit="10"/>
<path d="M160.084 64.751C160.063 64.2945 159.927 63.8506 159.69 63.4602C159.452 63.0699 159.12 62.7457 158.725 62.5176L158.114 63.7254L158.132 62.2626C157.841 62.1774 157.538 62.141 157.235 62.1547C156.697 62.1799 156.178 62.3643 155.745 62.6846C155.312 63.0049 154.983 63.4466 154.8 63.9539C154.617 64.4613 154.589 65.0114 154.719 65.5348C154.849 66.0582 155.13 66.5314 155.529 66.8945C155.927 67.2575 156.424 67.4942 156.957 67.5746C157.489 67.655 158.034 67.5754 158.522 67.346C159.009 67.1165 159.418 66.7476 159.696 66.2857C159.974 65.8238 160.109 65.2897 160.084 64.751Z" fill="#B72434"/>
<path d="M155.226 83.2102C154.94 83.7661 154.472 84.2067 153.9 84.4582C153.328 84.7096 152.687 84.7567 152.085 84.5913C151.482 84.426 150.955 84.0584 150.591 83.5502C150.228 83.0419 150.05 82.424 150.087 81.7999C150.124 81.1758 150.375 80.5836 150.797 80.1225C151.219 79.6614 151.786 79.3596 152.404 79.2675C153.022 79.1754 153.652 79.2988 154.19 79.6169C154.728 79.935 155.14 80.4285 155.357 81.0146L153.655 82.4003L155.531 81.9632C155.53 82.3973 155.425 82.8249 155.226 83.2102Z" fill="#B72434"/>
<path d="M153.88 77.9122C153.523 77.929 153.166 77.8752 152.829 77.7537C152.493 77.6323 152.183 77.4457 151.919 77.2046C151.654 76.9635 151.44 76.6727 151.287 76.3486C151.135 76.0245 151.048 75.6736 151.032 75.3159C151.01 74.8888 151.091 74.4628 151.267 74.073C151.43 73.7088 151.67 73.3846 151.971 73.1234C152.273 72.8622 152.628 72.6703 153.011 72.5611L152.996 73.6821L153.613 72.4603H153.62C153.977 72.4435 154.334 72.4974 154.671 72.6188C155.008 72.7402 155.317 72.9268 155.581 73.1679C155.846 73.409 156.06 73.6999 156.213 74.024C156.365 74.348 156.452 74.6989 156.469 75.0566C156.485 75.4143 156.431 75.7718 156.31 76.1087C156.189 76.4456 156.002 76.7553 155.762 77.0201C155.521 77.2848 155.23 77.4995 154.906 77.6519C154.583 77.8043 154.232 77.8913 153.875 77.908L153.88 77.9122Z" fill="#B72434"/>
<path d="M160.494 73.5083C160.132 73.5323 159.77 73.4839 159.427 73.3659C159.084 73.2479 158.768 73.0627 158.498 72.8211C158.228 72.5796 158.008 72.2864 157.853 71.9589C157.697 71.6314 157.608 71.2761 157.591 70.9137C157.574 70.5514 157.629 70.1893 157.754 69.8486C157.878 69.508 158.07 69.1956 158.316 68.9298C158.563 68.664 158.86 68.4501 159.19 68.3006C159.52 68.1511 159.877 68.069 160.239 68.0591C160.748 68.0343 161.254 68.1543 161.698 68.4052L161.216 69.7251L162.207 68.7737C162.739 69.259 163.057 69.9358 163.091 70.6555C163.103 70.9079 163.079 71.1608 163.021 71.4065C162.885 71.9842 162.565 72.502 162.109 72.8813C161.653 73.2606 161.086 73.4807 160.494 73.5083Z" fill="#B72434"/>
<path opacity="0.1" d="M159.717 65.4782C159.088 65.5469 158.478 65.7431 157.847 65.7823C157.215 65.8215 156.522 65.6702 156.123 65.1784C155.908 64.915 155.801 64.5801 155.619 64.2914C155.448 64.0228 155.212 63.8008 154.934 63.6455C154.759 63.9911 154.659 64.3701 154.642 64.7571C154.625 65.1441 154.691 65.5304 154.834 65.8901C154.978 66.2498 155.197 66.5747 155.476 66.8432C155.755 67.1116 156.088 67.3175 156.453 67.4471C156.817 67.5766 157.206 67.6269 157.591 67.5946C157.977 67.5622 158.351 67.4479 158.689 67.2594C159.028 67.0708 159.322 66.8123 159.552 66.5011C159.783 66.1899 159.944 65.8331 160.026 65.4544C159.923 65.46 159.82 65.467 159.717 65.4782Z" fill="black"/>
<path opacity="0.1" d="M160.494 73.5083C160.024 73.5297 159.557 73.4294 159.138 73.2169C158.719 73.0045 158.361 72.6872 158.101 72.2959C157.84 71.9046 157.685 71.4524 157.65 70.9833C157.615 70.5143 157.702 70.0442 157.902 69.6187C158.118 69.7651 158.304 69.9515 158.45 70.1679C158.644 70.4608 158.762 70.7998 158.99 71.0689C159.41 71.5691 160.139 71.7316 160.796 71.7022C161.452 71.6728 162.088 71.485 162.743 71.422C162.834 71.4136 162.926 71.408 163.023 71.4052C162.888 71.9836 162.567 72.502 162.111 72.8816C161.654 73.2612 161.086 73.4813 160.494 73.5083Z" fill="black"/>
<path opacity="0.1" d="M153.88 77.9122C153.523 77.929 153.166 77.8751 152.829 77.7537C152.493 77.6323 152.183 77.4457 151.919 77.2046C151.654 76.9635 151.44 76.6726 151.287 76.3486C151.135 76.0245 151.048 75.6736 151.032 75.3158C151.01 74.8888 151.091 74.4627 151.267 74.073C151.491 74.2228 151.686 74.4128 151.842 74.6335C152.054 74.9319 152.186 75.2766 152.434 75.5526C152.893 76.0641 153.666 76.2448 154.362 76.228C155.037 76.214 155.686 76.0487 156.357 75.9968C156.19 76.532 155.863 77.003 155.42 77.3457C154.977 77.6884 154.44 77.8862 153.88 77.9122Z" fill="black"/>
<path opacity="0.1" d="M155.226 83.2099C154.909 83.8335 154.365 84.3112 153.706 84.5443C153.047 84.7774 152.323 84.748 151.685 84.4621C151.047 84.1763 150.544 83.656 150.278 83.0087C150.013 82.3615 150.006 81.6369 150.26 80.9849C150.484 81.1326 150.685 81.3124 150.857 81.5187C151.116 81.8354 151.287 82.1941 151.587 82.4883C152.146 83.0348 153.042 83.2604 153.843 83.2814C154.305 83.2852 154.767 83.2613 155.226 83.2099Z" fill="black"/>
<path d="M19.3883 86.6372C18.8116 85.5667 19.4667 84.2552 20.2198 83.2996C20.9729 82.344 21.8912 81.3519 21.8716 80.1343C21.8436 78.3871 19.9902 77.3544 18.512 76.4268C17.4126 75.7394 16.3986 74.9238 15.4912 73.9972C15.1112 73.6403 14.797 73.2191 14.5631 72.753C14.2566 72.0692 14.2664 71.2915 14.2832 70.5433C14.3476 68.0473 14.4707 65.5551 14.6527 63.0667" stroke="#3F3D56" stroke-width="4" stroke-miterlimit="10"/>
<path d="M11.836 62.9295C11.857 62.4729 11.9926 62.029 12.2301 61.6387C12.4677 61.2484 12.7996 60.9242 13.1952 60.696L13.8055 61.9038L13.7873 60.441C14.0785 60.3559 14.3816 60.3194 14.6846 60.3331C15.2228 60.3584 15.7414 60.5428 16.1748 60.8631C16.6083 61.1833 16.9371 61.6251 17.1198 62.1324C17.3024 62.6397 17.3307 63.1899 17.201 63.7133C17.0713 64.2367 16.7894 64.7098 16.3911 65.0729C15.9927 65.436 15.4958 65.6727 14.963 65.753C14.4303 65.8334 13.8857 65.7539 13.3982 65.5244C12.9106 65.295 12.5019 64.926 12.2239 64.4641C11.9458 64.0022 11.8108 63.4682 11.836 62.9295Z" fill="#B72434"/>
<path d="M16.6938 81.3884C16.9797 81.9443 17.4477 82.3849 18.0196 82.6364C18.5914 82.8879 19.2323 82.9349 19.8346 82.7696C20.437 82.6042 20.9643 82.2366 21.328 81.7284C21.6918 81.2202 21.8699 80.6022 21.8325 79.9781C21.7951 79.354 21.5444 78.7618 21.1226 78.3007C20.7008 77.8397 20.1334 77.5378 19.5156 77.4457C18.8978 77.3537 18.2672 77.477 17.7295 77.7951C17.1917 78.1132 16.7796 78.6067 16.5622 79.1928L18.2644 80.5785L16.3887 80.1414C16.3895 80.5755 16.4941 81.0031 16.6938 81.3884Z" fill="#B72434"/>
<path d="M18.0384 76.0907C18.3957 76.1074 18.7529 76.0536 19.0895 75.9322C19.426 75.8108 19.7354 75.6242 19.9999 75.3831C20.2645 75.142 20.479 74.8511 20.6312 74.527C20.7834 74.2029 20.8703 73.852 20.887 73.4943C20.9082 73.0672 20.8276 72.6412 20.6518 72.2515C20.4891 71.8872 20.2486 71.5631 19.9473 71.3019C19.6459 71.0407 19.2911 70.8488 18.9077 70.7396L18.9231 71.8605L18.3057 70.6387C17.584 70.6049 16.8784 70.8595 16.3442 71.3464C15.81 71.8333 15.4909 72.5127 15.4571 73.2351C15.4233 73.9575 15.6776 74.6638 16.164 75.1985C16.6505 75.7332 17.3292 76.0527 18.051 76.0865L18.0384 76.0907Z" fill="#B72434"/>
<path d="M11.4261 71.6867C11.7877 71.7107 12.1504 71.6623 12.4931 71.5443C12.8358 71.4263 13.1515 71.2411 13.4219 70.9995C13.6922 70.7579 13.9117 70.4648 14.0674 70.1373C14.2232 69.8098 14.3122 69.4545 14.3291 69.0921C14.3461 68.7298 14.2906 68.3677 14.1661 68.027C14.0416 67.6864 13.8504 67.374 13.6038 67.1082C13.3572 66.8424 13.0601 66.6285 12.7299 66.479C12.3997 66.3295 12.0431 66.2474 11.6808 66.2375C11.1741 66.214 10.671 66.334 10.2292 66.5836L10.7107 67.9035L9.71267 66.9563C9.18175 67.4406 8.86415 68.1157 8.82938 68.8339C8.81698 69.0863 8.84055 69.3392 8.89937 69.5849C9.03484 70.1626 9.35482 70.6804 9.81078 71.0597C10.2667 71.439 10.8338 71.6591 11.4261 71.6867Z" fill="#B72434"/>
<path opacity="0.1" d="M12.2029 63.6567C12.8314 63.7254 13.4418 63.9215 14.0731 63.9608C14.7044 64 15.3973 63.8487 15.7963 63.3569C16.0118 63.0934 16.1182 62.7586 16.3002 62.4699C16.4721 62.2012 16.7077 61.9793 16.9861 61.824C17.161 62.1696 17.2603 62.5485 17.2773 62.9356C17.2944 63.3226 17.2289 63.7088 17.0851 64.0685C16.9414 64.4282 16.7227 64.7532 16.4437 65.0216C16.1647 65.2901 15.8317 65.496 15.4669 65.6256C15.1022 65.7551 14.714 65.8054 14.3283 65.773C13.9427 65.7407 13.5683 65.6264 13.2302 65.4378C12.8921 65.2493 12.598 64.9908 12.3675 64.6796C12.137 64.3683 11.9755 64.0115 11.8936 63.6329C11.9971 63.6385 12.0993 63.6455 12.2029 63.6567Z" fill="black"/>
<path opacity="0.1" d="M11.426 71.6868C11.8954 71.7082 12.3624 71.6078 12.7816 71.3954C13.2009 71.183 13.5582 70.8657 13.8189 70.4744C14.0796 70.083 14.2348 69.6309 14.2695 69.1618C14.3042 68.6927 14.2173 68.2226 14.017 67.7971C13.8012 67.9435 13.6154 68.13 13.4697 68.3464C13.2751 68.6392 13.1576 68.9783 12.9294 69.2473C12.5094 69.7476 11.7801 69.9101 11.1236 69.8807C10.4671 69.8512 9.83157 69.6635 9.17645 69.6004C9.08546 69.592 8.99307 69.5864 8.89648 69.5836C9.03182 70.1621 9.3521 70.6805 9.80865 71.0601C10.2652 71.4397 10.8331 71.6597 11.426 71.6868Z" fill="black"/>
<path opacity="0.1" d="M18.0388 76.0907C18.3962 76.1074 18.7533 76.0536 19.0899 75.9322C19.4265 75.8108 19.7358 75.6242 20.0004 75.3831C20.2649 75.142 20.4794 74.8511 20.6316 74.527C20.7838 74.2029 20.8707 73.852 20.8874 73.4943C20.9086 73.0672 20.828 72.6412 20.6523 72.2515C20.4277 72.4012 20.2326 72.5913 20.0769 72.8119C19.8656 73.1104 19.7326 73.4551 19.4848 73.7311C19.0257 74.2425 18.253 74.4233 17.5573 74.4065C16.8825 74.3925 16.233 74.2271 15.5625 74.1753C15.7287 74.7105 16.0556 75.1815 16.4986 75.5242C16.9417 75.8669 17.4795 76.0647 18.0388 76.0907Z" fill="black"/>
<path opacity="0.1" d="M16.6943 81.3886C17.0113 82.0122 17.5556 82.4899 18.2147 82.723C18.8737 82.9561 19.597 82.9267 20.235 82.6409C20.873 82.355 21.3768 81.8347 21.6422 81.1874C21.9076 80.5402 21.9143 79.8156 21.6609 79.1636C21.4367 79.3113 21.2353 79.4912 21.0632 79.6974C20.8042 80.0141 20.6334 80.3728 20.3339 80.667C19.774 81.2135 18.8781 81.4391 18.0774 81.4601C17.6153 81.4639 17.1535 81.44 16.6943 81.3886Z" fill="black"/>
<path d="M98.2786 73.5071C98.2813 73.1674 98.2044 72.8318 98.0542 72.5271C97.9039 72.2225 97.6845 71.9573 97.4136 71.7528C97.38 70.4679 96.4645 69.4185 95.2872 69.2559C95.1963 68.8194 94.9921 68.4145 94.6953 68.082C94.3985 67.7494 94.0194 67.501 93.5962 67.3615C93.4933 67.3289 93.388 67.3041 93.2813 67.2873H93.2505L93.1959 67.2803H93.1497H93.1035H93.0433H93.0069H92.9075C91.7065 67.2803 90.707 68.1994 90.5012 69.4115C89.7243 69.2321 89.0118 69.4647 88.8844 69.9565C88.8515 70.0869 88.8588 70.2241 88.9054 70.3502C89.037 70.7314 89.4653 71.0957 90.0463 71.2764L90.1219 71.2988C90.1597 71.31 90.1975 71.3184 90.2352 71.3269H90.2604C90.0469 71.7827 90.0166 72.3032 90.1758 72.7808C90.335 73.2583 90.6715 73.6563 91.1157 73.8924C91.0982 73.902 91.0814 73.9128 91.0653 73.9246C90.9936 73.9905 90.9364 74.0707 90.8974 74.16C90.757 74.4066 90.6479 74.6697 90.5726 74.9433C90.5166 75.1773 90.5068 75.4225 90.4326 75.6537C90.3052 76.074 89.9777 76.4425 89.9399 76.8895C89.9231 77.0885 89.9553 77.3225 89.8139 77.4584C89.7787 77.4887 89.7413 77.5163 89.7019 77.541C89.6028 77.6089 89.5189 77.6967 89.4555 77.7989C89.4143 77.8833 89.3589 77.9601 89.2918 78.0259C89.1644 78.1225 88.9544 78.1127 88.8914 78.2612C88.8284 78.4098 88.9908 78.5849 88.953 78.7475C88.9222 78.8792 88.778 78.9394 88.673 79.0277C88.5556 79.1552 88.4736 79.3112 88.4351 79.4803C88.226 79.5206 88.0105 79.5143 87.8041 79.4618C87.5977 79.4092 87.4054 79.3117 87.241 79.1762C87.2974 79.3205 87.3387 79.4703 87.3642 79.6232C87.1976 79.4452 86.9233 79.3934 86.7203 79.3009C86.4585 79.1809 86.2248 79.0071 86.0344 78.7909L86.4011 78.7404L84.7773 76.2744L84.2986 76.1763L84.7283 77.0016C84.6932 77.0185 84.6623 77.0432 84.638 77.0738C84.6138 77.1043 84.5968 77.14 84.5884 77.1781C84.5652 77.2697 84.5595 77.3647 84.5716 77.4584C84.5943 77.6796 84.6312 77.8991 84.6821 78.1155L84.8067 78.6956C84.8173 78.75 84.8308 78.8038 84.8473 78.8567C84.685 78.8509 84.5227 78.8693 84.3658 78.9114C84.0439 78.7922 83.7088 78.7127 83.3677 78.6746C83.2927 78.6614 83.2157 78.6653 83.1423 78.6858C83.0591 78.7242 82.9869 78.783 82.9324 78.8567C82.6524 79.1807 82.4039 79.5307 82.1905 79.902C81.3184 81.4209 80.1537 82.7464 79.0632 84.1195C78.3101 84.4264 77.5514 84.7178 76.7913 85.0065L75.1577 85.63C74.8316 85.7547 74.4928 85.8822 74.1456 85.8598C73.9889 85.85 73.7985 85.8262 73.7103 85.9593C73.6674 86.0253 73.6339 86.097 73.6109 86.1723C73.5535 86.1723 73.4961 86.1863 73.4429 86.1891H73.4331C73.3296 85.9313 73.24 85.6552 73.0412 85.4675C73.0012 85.4736 72.9633 85.4896 72.9311 85.5141C72.8988 85.5386 72.8732 85.5707 72.8564 85.6076C72.8172 85.6804 72.7934 85.7603 72.7486 85.8276C72.6604 85.9565 72.5079 86.0195 72.3987 86.1288C72.2895 86.2381 72.2209 86.4091 72.1033 86.5156C71.9387 86.6353 71.7457 86.7102 71.5434 86.7327C71.2403 86.8042 70.948 86.9153 70.6741 87.0634C70.5731 87.1256 70.465 87.1754 70.3521 87.2119C70.228 87.2357 70.101 87.24 69.9756 87.2245L69.1105 87.1615C69.0335 87.1514 68.9554 87.1547 68.8795 87.1713C68.7904 87.204 68.7146 87.2653 68.6639 87.3456C68.6133 87.426 68.5907 87.5209 68.5995 87.6155C68.6101 87.7093 68.6397 87.8 68.6867 87.882C68.7336 87.9639 68.7969 88.0354 68.8725 88.0919C69.0227 88.2021 69.1889 88.2885 69.3653 88.3483C70.117 88.6397 70.892 88.8671 71.682 89.0278V89.203C72.2295 89.479 72.834 89.623 73.4471 89.6233C73.4923 89.6269 73.5376 89.6187 73.5787 89.5995C73.6354 89.5569 73.6747 89.4952 73.6893 89.4258C73.8729 88.8763 73.989 88.3065 74.0351 87.729C74.1432 87.722 74.249 87.6949 74.3472 87.6491C74.6454 87.5678 74.9408 87.7724 75.2473 87.806C75.6253 87.8467 75.9766 87.6267 76.3336 87.4908C76.3854 87.4711 76.4372 87.4543 76.489 87.4375C76.3871 87.5694 76.2669 87.6859 76.132 87.7836C75.9836 87.8901 75.817 87.9686 75.6715 88.0793C75.5505 88.1899 75.4208 88.2906 75.2837 88.3805C75.1871 88.4256 75.0874 88.4639 74.9855 88.4954C74.8378 88.5493 74.6969 88.6203 74.5656 88.707C74.448 88.7763 74.3483 88.8723 74.2744 88.9872C74.2372 89.0408 74.2144 89.1031 74.208 89.1681C74.2017 89.2331 74.212 89.2986 74.2381 89.3584C74.2642 89.4183 74.3052 89.4704 74.3571 89.5099C74.409 89.5494 74.4702 89.575 74.5348 89.5841C74.6517 89.6049 74.7711 89.6082 74.889 89.5939C75.3565 89.5589 75.8226 89.5155 76.2888 89.4734C76.4861 89.4602 76.6822 89.4321 76.8753 89.3893C76.9775 89.3641 77.0783 89.3305 77.1805 89.3039C77.3548 89.2578 77.5337 89.2311 77.7138 89.224C77.7661 89.2199 77.8187 89.2251 77.8692 89.2394C77.9784 89.2745 78.0554 89.3795 78.166 89.4076C78.2377 89.4146 78.3102 89.4045 78.3773 89.3781C78.7186 89.304 79.0668 89.2669 79.416 89.2674C79.5686 89.259 79.7478 89.2296 79.8191 89.0881C79.9059 88.913 79.7604 88.7168 79.703 88.5276C79.6737 88.4074 79.6578 88.2843 79.6554 88.1605C79.6287 87.8552 79.5412 87.5584 79.3978 87.2876C79.3216 87.1612 79.2574 87.028 79.206 86.8897C79.8749 86.635 80.515 86.3099 81.1154 85.9201C81.4597 85.7057 81.8153 85.4745 82.2044 85.396C82.658 85.3049 83.1255 85.4254 83.5721 85.5543C84.6357 85.8624 85.682 86.2277 86.7063 86.6487C87.1962 86.849 87.6862 87.062 88.1873 87.2091C88.3338 87.407 88.511 87.5801 88.7122 87.722C89.0482 87.9391 89.4583 88.0022 89.8531 88.033C90.3864 88.0818 90.9219 88.1019 91.4573 88.0933C91.866 88.0863 92.2874 88.0582 92.6527 87.8719C92.742 87.826 92.826 87.7706 92.9033 87.7065C93.1833 87.757 93.4702 87.6071 93.69 87.4151C93.9809 87.1674 94.1906 86.8379 94.2919 86.4693C94.4207 85.9635 94.3213 85.3736 94.6321 84.9602C94.7147 84.8496 94.8225 84.7599 94.9037 84.6478C95.0036 84.4977 95.0527 84.3193 95.0437 84.1392L95.0576 84.1181C95.128 83.9555 95.1751 83.7839 95.1976 83.6081C95.2344 83.4708 95.2812 83.3364 95.3376 83.206C95.4954 82.815 95.6328 82.4161 95.7492 82.0108C95.8301 81.7419 95.8937 81.4681 95.9395 81.1911C95.9731 80.9697 95.9927 80.7469 96.0109 80.5241C96.0334 80.1754 96.1011 79.8311 96.2125 79.4999C96.4888 78.7094 96.645 77.8819 96.6758 77.045C96.6758 77.0282 96.6758 77.0128 96.6758 76.996C97.0822 76.9514 97.4574 76.7566 97.7279 76.4498C97.9985 76.143 98.1449 75.7462 98.1387 75.337C98.139 75.0904 98.0875 74.8464 97.9875 74.621C98.1806 74.2818 98.281 73.8975 98.2786 73.5071ZM90.3626 83.1345C90.3864 83.22 90.4144 83.3055 90.4424 83.3909C90.3136 83.2634 90.1863 83.1317 90.0561 83.0056C90.1079 83.021 90.1597 83.0378 90.21 83.0561C90.2637 83.0773 90.3153 83.1036 90.364 83.1345H90.3626ZM89.7355 82.7142C88.9712 82.05 88.0865 81.5344 87.304 80.8927C87.724 81.1042 88.1439 81.3494 88.5639 81.5848C89.0529 81.8651 89.5475 82.1332 90.0477 82.3891C89.9656 82.5137 89.8612 82.622 89.7397 82.7086L89.7355 82.7142ZM90.0617 81.0412L90.0981 81.0033C90.0981 81.0972 90.0981 81.1855 90.0981 81.2654C90.0295 81.2429 89.9581 81.2205 89.8923 81.1953C89.9527 81.146 90.0098 81.0926 90.0631 81.0356L90.0617 81.0412ZM83.3327 82.8403C83.6474 82.484 83.9212 82.0934 84.1488 81.6759C84.4512 82.2069 84.9439 82.5895 85.3639 83.0336C84.6891 82.9384 84.013 82.8641 83.3341 82.8347L83.3327 82.8403Z" fill="url(#paint0_linear_429:4108)"/>
<path d="M84.4238 76.3806L84.9068 76.4787L86.5516 78.9111L85.825 79.0092L84.4238 76.3806Z" fill="#2F2E41"/>
<path d="M72.7285 86.2534C72.8587 86.6845 73.0192 87.1059 73.2087 87.5145C73.7536 87.4003 74.2898 87.2472 74.8129 87.0563C74.7116 86.8984 74.6003 86.7473 74.4797 86.6037C74.3511 86.4606 74.1974 86.3424 74.0262 86.2548C73.8596 86.182 73.6538 86.2366 73.476 86.2464C73.2269 86.2558 72.9777 86.2581 72.7285 86.2534Z" fill="#FBBEBE"/>
<path d="M74.0291 86.9034C73.7575 86.8179 73.5909 86.5433 73.4804 86.2785C73.3698 86.0137 73.2802 85.725 73.0702 85.5303C73.0302 85.5365 72.9925 85.5526 72.9602 85.5771C72.928 85.6015 72.9023 85.6336 72.8854 85.6704C72.8448 85.7404 72.821 85.8203 72.7748 85.8876C72.6881 86.0137 72.5341 86.0753 72.4235 86.1832C72.3129 86.2911 72.2443 86.455 72.1253 86.5629C71.9602 86.6817 71.7674 86.756 71.5654 86.7787C71.2603 86.8479 70.9656 86.9572 70.6891 87.1038C70.5868 87.1632 70.4777 87.2102 70.3643 87.2439C70.2393 87.2677 70.1113 87.272 69.985 87.2565L69.1129 87.1935C69.0354 87.1838 68.9568 87.1876 68.8805 87.2047C68.7917 87.2356 68.7158 87.2955 68.665 87.3748C68.6143 87.4541 68.5916 87.5481 68.6006 87.6418C68.6121 87.7352 68.643 87.8252 68.6912 87.906C68.7394 87.9868 68.8039 88.0567 68.8805 88.1112C69.0321 88.2197 69.1992 88.3047 69.3761 88.3634C70.1359 88.6494 70.9177 88.8729 71.7138 89.0318V89.2041C72.267 89.4783 72.8756 89.622 73.493 89.6245C73.5409 89.6287 73.5891 89.6205 73.6329 89.6007C73.6897 89.5591 73.7294 89.4984 73.7449 89.4297C73.9542 88.8175 74.0762 88.1788 74.1075 87.5325C74.1235 87.3691 74.1112 87.2042 74.0711 87.0449C74.0235 86.888 74.1859 86.9539 74.0347 86.8922" fill="#2F2E41"/>
<path d="M90.7486 83.6135C88.1631 83.7705 85.6098 83.011 83.0201 82.9297C82.6987 82.9102 82.3761 82.9309 82.0598 82.9914C81.7301 83.0799 81.411 83.2039 81.108 83.3613C79.7207 84.0073 78.2845 84.5425 76.8497 85.0778L75.2035 85.6915C74.8731 85.8134 74.533 85.9381 74.1816 85.9171C74.0248 85.9072 73.8331 85.8834 73.7435 86.0151C73.4761 86.4117 73.6035 86.996 73.7799 87.4415C73.8373 87.5817 73.9339 87.7428 74.0878 87.7596C74.1968 87.7521 74.3035 87.7251 74.4028 87.6797C74.7024 87.5999 75.0019 87.8016 75.3099 87.8339C75.692 87.8745 76.0462 87.6573 76.4059 87.5242C77.0023 87.3042 77.6546 87.3112 78.2817 87.2061C79.3344 87.031 80.3087 86.542 81.2213 85.9843C81.5685 85.7727 81.9213 85.5457 82.3188 85.4687C82.7765 85.379 83.2483 85.4967 83.6976 85.6242C84.7689 85.9278 85.8235 86.2874 86.857 86.7017C87.395 86.9357 87.9466 87.1369 88.5088 87.3042C89.7342 87.6272 91.0304 87.5516 92.21 87.0884C92.6299 86.9245 93.0723 86.6359 93.0961 86.1889C93.1101 85.9339 92.9127 85.7097 92.7811 85.4883C92.6957 85.3482 92.6117 85.2081 92.5193 85.0749C92.0742 84.4248 91.5339 83.5659 90.7486 83.6135Z" fill="#2F2E41"/>
<path opacity="0.1" d="M90.7486 83.6135C88.1631 83.7705 85.6098 83.011 83.0201 82.9297C82.6987 82.9102 82.3761 82.9309 82.0598 82.9914C81.7301 83.0799 81.411 83.2039 81.108 83.3613C79.7207 84.0073 78.2845 84.5425 76.8497 85.0778L75.2035 85.6915C74.8731 85.8134 74.533 85.9381 74.1816 85.9171C74.0248 85.9072 73.8331 85.8834 73.7435 86.0151C73.4761 86.4117 73.6035 86.996 73.7799 87.4415C73.8373 87.5817 73.9339 87.7428 74.0878 87.7596C74.1968 87.7521 74.3035 87.7251 74.4028 87.6797C74.7024 87.5999 75.0019 87.8016 75.3099 87.8339C75.692 87.8745 76.0462 87.6573 76.4059 87.5242C77.0023 87.3042 77.6546 87.3112 78.2817 87.2061C79.3344 87.031 80.3087 86.542 81.2213 85.9843C81.5685 85.7727 81.9213 85.5457 82.3188 85.4687C82.7765 85.379 83.2483 85.4967 83.6976 85.6242C84.7689 85.9278 85.8235 86.2874 86.857 86.7017C87.395 86.9357 87.9466 87.1369 88.5088 87.3042C89.7342 87.6272 91.0304 87.5516 92.21 87.0884C92.6299 86.9245 93.0723 86.6359 93.0961 86.1889C93.1101 85.9339 92.9127 85.7097 92.7811 85.4883C92.6957 85.3482 92.6117 85.2081 92.5193 85.0749C92.0742 84.4248 91.5339 83.5659 90.7486 83.6135Z" fill="black"/>
<path d="M77.6914 86.3794C78.0964 86.5167 78.5042 86.6438 78.9149 86.7605C79.1458 86.3808 79.577 86.1174 79.675 85.6844C79.6805 85.6657 79.6805 85.6457 79.675 85.627C79.6643 85.6085 79.6481 85.5938 79.6288 85.5849C79.3337 85.422 79.0062 85.3263 78.6699 85.3047C78.4039 85.2879 78.2835 85.5653 78.1631 85.7601C78.1212 85.8385 77.7992 86.4158 77.6914 86.3794Z" fill="#FBBEBE"/>
<path d="M78.2612 86.1021C78.1404 86.0819 78.025 86.0368 77.9226 85.9695C77.8201 85.9021 77.7328 85.8142 77.6663 85.7111C77.6089 85.6117 77.5487 85.4771 77.434 85.4841C77.3192 85.4912 77.28 85.6173 77.2562 85.7224C77.1787 86.1149 77.0667 86.4999 76.9216 86.8727C76.7753 87.2467 76.5276 87.5723 76.2063 87.8129C76.0565 87.9166 75.8899 87.9951 75.743 88.1043C75.6205 88.2137 75.4894 88.313 75.351 88.4014C75.2535 88.446 75.1529 88.4835 75.05 88.5135C74.8992 88.5662 74.755 88.6363 74.6203 88.7223C74.5022 88.7915 74.402 88.8875 74.3277 89.0025C74.2919 89.0609 74.2709 89.1272 74.2665 89.1955C74.2621 89.2639 74.2745 89.3323 74.3025 89.3948C74.3327 89.4456 74.3732 89.4894 74.4215 89.5235C74.4697 89.5575 74.5246 89.581 74.5825 89.5924C74.7005 89.612 74.8207 89.6148 74.9395 89.6008C75.4112 89.5658 75.8815 89.5237 76.3519 89.4817C76.551 89.4694 76.7489 89.4422 76.944 89.4004C77.0476 89.3752 77.1484 89.3416 77.2506 89.315C77.427 89.27 77.6076 89.2437 77.7895 89.2365C77.8423 89.2325 77.8953 89.2377 77.9463 89.2519C78.0555 89.2869 78.1325 89.392 78.2444 89.4172C78.3166 89.4248 78.3895 89.4152 78.4572 89.3892C78.8015 89.3163 79.1524 89.2797 79.5043 89.2799C79.6583 89.2715 79.8403 89.2421 79.9102 89.1034C79.9984 88.931 79.8528 88.7377 79.7941 88.5527C79.765 88.4343 79.7486 88.3131 79.7451 88.1912C79.7186 87.8902 79.6304 87.5978 79.4861 87.3323C79.3657 87.1109 79.2061 86.8671 79.2859 86.6317C79.3288 86.5582 79.356 86.4767 79.3657 86.3921C79.3461 86.0124 78.474 86.1525 78.2612 86.1021Z" fill="#2F2E41"/>
<path d="M86.873 79.4632C86.415 79.2608 86.048 78.896 85.8427 78.4389C85.8007 78.3408 85.7643 78.2385 85.7237 78.139C85.5875 77.8102 85.3766 77.5175 85.1078 77.2843C85.079 77.2526 85.0437 77.2276 85.0043 77.2109C84.9649 77.1942 84.9224 77.1863 84.8796 77.1877C84.8383 77.2 84.8009 77.2231 84.7714 77.2546C84.7419 77.2861 84.7212 77.3249 84.7116 77.367C84.6876 77.4584 84.6815 77.5535 84.6934 77.6472C84.7173 77.8647 84.7547 78.0804 84.8054 78.2932L84.9314 78.8649C84.9473 78.9527 84.9736 79.0383 85.0098 79.1199C85.0637 79.2158 85.1349 79.3008 85.2198 79.3707C85.3346 79.4772 85.4507 79.5795 85.5683 79.6789C85.6331 79.7377 85.704 79.7893 85.7797 79.8331C85.9039 79.892 86.0367 79.9308 86.1731 79.948C86.6868 80.0432 87.2089 80.1806 87.6415 80.5084C87.6415 80.5084 87.6415 80.1259 87.6317 80.0881C87.6264 79.9772 87.5884 79.8704 87.5225 79.7812C87.3601 79.6061 87.0802 79.5542 86.873 79.4632Z" fill="#FBBEBE"/>
<path opacity="0.1" d="M86.873 79.4632C86.415 79.2608 86.048 78.896 85.8427 78.4389C85.8007 78.3408 85.7643 78.2385 85.7237 78.139C85.5875 77.8102 85.3766 77.5175 85.1078 77.2843C85.079 77.2526 85.0437 77.2276 85.0043 77.2109C84.9649 77.1942 84.9224 77.1863 84.8796 77.1877C84.8383 77.2 84.8009 77.2231 84.7714 77.2546C84.7419 77.2861 84.7212 77.3249 84.7116 77.367C84.6876 77.4584 84.6815 77.5535 84.6934 77.6472C84.7173 77.8647 84.7547 78.0804 84.8054 78.2932L84.9314 78.8649C84.9473 78.9527 84.9736 79.0383 85.0098 79.1199C85.0637 79.2158 85.1349 79.3008 85.2198 79.3707C85.3346 79.4772 85.4507 79.5795 85.5683 79.6789C85.6331 79.7377 85.704 79.7893 85.7797 79.8331C85.9039 79.892 86.0367 79.9308 86.1731 79.948C86.6868 80.0432 87.2089 80.1806 87.6415 80.5084C87.6415 80.5084 87.6415 80.1259 87.6317 80.0881C87.6264 79.9772 87.5884 79.8704 87.5225 79.7812C87.3601 79.6061 87.0802 79.5542 86.873 79.4632Z" fill="black"/>
<path d="M92.1363 75.0916C92.4835 75.0916 92.7649 74.8081 92.7649 74.4583C92.7649 74.1085 92.4835 73.825 92.1363 73.825C91.7892 73.825 91.5078 74.1085 91.5078 74.4583C91.5078 74.8081 91.7892 75.0916 92.1363 75.0916Z" fill="#2F2E41"/>
<path d="M91.7463 74.0759C91.5775 74.0374 91.4005 74.0628 91.2494 74.1473C91.1767 74.2117 91.119 74.291 91.08 74.3799C90.9386 74.6219 90.8285 74.8808 90.7524 75.1506C90.6965 75.3818 90.6867 75.6228 90.6125 75.8512C90.4837 76.2715 90.1533 76.6288 90.1155 77.0674C90.0987 77.2635 90.1309 77.4947 89.9881 77.6278C89.9527 77.6576 89.9147 77.6843 89.8748 77.7077C89.7753 77.7745 89.6909 77.8614 89.627 77.9627C89.5842 78.0537 89.5249 78.1359 89.452 78.2051C89.3232 78.3004 89.1119 78.2906 89.0489 78.4377C88.9859 78.5848 89.1482 78.7558 89.1105 78.9155C89.0797 79.0458 88.9341 79.1061 88.8305 79.1958C88.7125 79.3208 88.6299 79.4751 88.5911 79.6427C88.3808 79.6823 88.1645 79.6759 87.9569 79.6239C87.7494 79.5719 87.5555 79.4756 87.3887 79.3415C87.5636 79.7744 87.5678 80.2522 87.5748 80.7188C87.595 80.8681 87.5553 81.0192 87.4643 81.1392C87.9654 81.1504 88.4525 81.2793 88.9411 81.3956C89.15 81.4657 89.3761 81.4657 89.585 81.3956C89.6967 81.3354 89.7967 81.2557 89.8804 81.1602C90.1463 80.8898 90.4249 80.5997 90.4893 80.2228C90.5063 80.0107 90.5101 79.7978 90.5005 79.5853C90.5262 79.3229 90.5802 79.064 90.6615 78.8132C90.802 78.2926 90.8957 77.7603 90.9414 77.2229C90.9708 76.8908 91.2564 76.6246 91.4076 76.3276C91.6875 75.7671 91.9815 75.1856 92.0039 74.5579C92.0235 74.3533 91.9535 74.1025 91.7463 74.0759Z" fill="#2F2E41"/>
<path opacity="0.1" d="M91.7463 74.0759C91.5775 74.0374 91.4005 74.0628 91.2494 74.1473C91.1767 74.2117 91.119 74.291 91.08 74.3799C90.9386 74.6219 90.8285 74.8808 90.7524 75.1506C90.6965 75.3818 90.6867 75.6228 90.6125 75.8512C90.4837 76.2715 90.1533 76.6288 90.1155 77.0674C90.0987 77.2635 90.1309 77.4947 89.9881 77.6278C89.9527 77.6576 89.9147 77.6843 89.8748 77.7077C89.7753 77.7745 89.6909 77.8614 89.627 77.9627C89.5842 78.0537 89.5249 78.1359 89.452 78.2051C89.3232 78.3004 89.1119 78.2906 89.0489 78.4377C88.9859 78.5848 89.1482 78.7558 89.1105 78.9155C89.0797 79.0458 88.9341 79.1061 88.8305 79.1958C88.7125 79.3208 88.6299 79.4751 88.5911 79.6427C88.3808 79.6823 88.1645 79.6759 87.9569 79.6239C87.7494 79.5719 87.5555 79.4756 87.3887 79.3415C87.5636 79.7744 87.5678 80.2522 87.5748 80.7188C87.595 80.8681 87.5553 81.0192 87.4643 81.1392C87.9654 81.1504 88.4525 81.2793 88.9411 81.3956C89.15 81.4657 89.3761 81.4657 89.585 81.3956C89.6967 81.3354 89.7967 81.2557 89.8804 81.1602C90.1463 80.8898 90.4249 80.5997 90.4893 80.2228C90.5063 80.0107 90.5101 79.7978 90.5005 79.5853C90.5262 79.3229 90.5802 79.064 90.6615 78.8132C90.802 78.2926 90.8957 77.7603 90.9414 77.2229C90.9708 76.8908 91.2564 76.6246 91.4076 76.3276C91.6875 75.7671 91.9815 75.1856 92.0039 74.5579C92.0235 74.3533 91.9535 74.1025 91.7463 74.0759Z" fill="black"/>
<path d="M91.1585 84.1586C90.6196 83.9022 90.2262 83.4244 89.7909 83.0153C88.9594 82.2334 87.9431 81.6814 87.0696 80.9485C86.4915 80.4637 85.9736 79.8991 85.3366 79.4927C84.7765 79.135 84.1412 78.912 83.4805 78.8412C83.405 78.828 83.3275 78.8318 83.2537 78.8524C83.1703 78.8898 83.0976 78.9476 83.0423 79.0205C82.7601 79.3389 82.5093 79.6837 82.2934 80.0504C81.1862 81.9308 79.6142 83.5127 78.3109 85.2628C78.2691 85.304 78.2443 85.3594 78.2415 85.4181C78.2386 85.4768 78.2579 85.5343 78.2955 85.5794L78.5601 86.0993C78.7085 86.3893 78.9464 86.7284 79.26 86.6709C79.4039 86.6294 79.5327 86.5472 79.631 86.4341L80.8208 85.295L82.0681 84.1012C82.7988 83.4006 83.5421 82.686 84.0194 81.7921C84.3918 82.438 85.0525 82.8611 85.506 83.4538C85.6782 83.678 85.8182 83.926 85.9722 84.1642C86.2199 84.5468 86.4999 84.9055 86.7799 85.2628L88.2119 87.0913C88.3926 87.3517 88.6165 87.5792 88.874 87.7639C89.2128 87.9782 89.6257 88.0357 90.0247 88.0707C90.5621 88.1198 91.1019 88.1394 91.6415 88.1296C92.053 88.1226 92.4813 88.0959 92.8453 87.9124C93.2093 87.7288 93.5186 87.3519 93.499 86.9414C93.4768 86.7262 93.4064 86.5189 93.2932 86.3347C92.7879 85.3959 92.1188 84.6112 91.1585 84.1586Z" fill="#2F2E41"/>
<path d="M92.522 75.3831C92.7887 75.3831 93.005 75.1654 93.005 74.8969C93.005 74.6283 92.7887 74.4106 92.522 74.4106C92.2553 74.4106 92.0391 74.6283 92.0391 74.8969C92.0391 75.1654 92.2553 75.3831 92.522 75.3831Z" fill="#E8E8F0"/>
<path d="M92.416 74.5311C92.5251 74.7485 92.5443 75.0002 92.4692 75.2317C92.3946 75.4593 92.2901 75.6761 92.1585 75.8762C92.0452 76.0829 91.9095 76.2765 91.7539 76.4535C92.5 76.4899 93.2237 76.1971 93.8816 75.8412C94.4122 75.5609 94.9413 75.2036 95.2241 74.6698C95.1399 74.6899 95.0525 74.6922 94.9674 74.6765C94.8823 74.6608 94.8014 74.6275 94.7299 74.5787C94.5876 74.4794 94.4599 74.3605 94.3506 74.2256L93.9768 73.8053C93.8886 73.713 93.8111 73.611 93.7459 73.5012C93.664 73.352 93.6294 73.1815 93.6465 73.0122C93.4977 73.1681 93.3314 73.3064 93.1509 73.4242C92.8836 73.5993 92.591 73.7254 92.3208 73.8977C92.2256 73.9594 92.0143 74.0589 92.0689 74.178C92.1235 74.2971 92.3404 74.3966 92.416 74.5311Z" fill="#FBBEBE"/>
<path opacity="0.1" d="M92.416 74.5311C92.5251 74.7485 92.5443 75.0002 92.4692 75.2317C92.3946 75.4593 92.2901 75.6761 92.1585 75.8762C92.0452 76.0829 91.9095 76.2765 91.7539 76.4535C92.5 76.4899 93.2237 76.1971 93.8816 75.8412C94.4122 75.5609 94.9413 75.2036 95.2241 74.6698C95.1399 74.6899 95.0525 74.6922 94.9674 74.6765C94.8823 74.6608 94.8014 74.6275 94.7299 74.5787C94.5876 74.4794 94.4599 74.3605 94.3506 74.2256L93.9768 73.8053C93.8886 73.713 93.8111 73.611 93.7459 73.5012C93.664 73.352 93.6294 73.1815 93.6465 73.0122C93.4977 73.1681 93.3314 73.3064 93.1509 73.4242C92.8836 73.5993 92.591 73.7254 92.3208 73.8977C92.2256 73.9594 92.0143 74.0589 92.0689 74.178C92.1235 74.2971 92.3404 74.3966 92.416 74.5311Z" fill="black"/>
<path d="M92.4253 74.604C92.3499 74.7108 92.3093 74.8383 92.3093 74.969C92.3093 75.0998 92.3499 75.2273 92.4253 75.334C92.4463 75.3607 92.5261 75.5274 92.5653 75.5288C92.5983 75.526 92.6289 75.5104 92.6507 75.4854C92.8198 75.3085 92.9778 75.1213 93.1238 74.9249C93.2713 74.726 93.4847 74.5859 93.7257 74.5298C94.0183 74.4835 94.2997 74.6391 94.5558 74.7876C94.6659 74.8423 94.7618 74.922 94.8358 75.0202C94.8898 75.1176 94.9218 75.2257 94.9296 75.3369C95.0031 76.0049 95.0312 76.6771 95.0136 77.3489C95.0272 77.8333 94.9953 78.3179 94.9184 78.7963C94.8708 79.0429 94.7994 79.284 94.7658 79.5334C94.7413 79.7529 94.7315 79.9738 94.7364 80.1947V81.1195C94.7303 81.2889 94.7425 81.4585 94.7728 81.6253C94.8306 81.8243 94.8983 82.0202 94.9758 82.2124C95.0439 82.4411 95.0908 82.6756 95.1158 82.913L95.2418 83.87C95.2824 84.1726 95.3118 84.5019 95.1284 84.7443C95.0472 84.855 94.938 84.9419 94.8484 85.0512C94.5334 85.4519 94.6384 86.0334 94.4985 86.5308C94.3949 86.8958 94.183 87.2207 93.8909 87.4626C93.6684 87.6517 93.38 87.8017 93.0916 87.7428C92.7039 87.67 92.4701 87.265 92.3637 86.8825C92.2573 86.5 92.2237 86.0824 91.99 85.7616C91.8024 85.4967 91.5126 85.3314 91.2509 85.1422C90.9891 84.9531 90.7315 84.7107 90.6741 84.3912C90.6489 84.2511 90.6643 84.111 90.6503 83.9709C90.6295 83.7923 90.5611 83.6226 90.4523 83.4796C90.3434 83.3367 90.1981 83.2256 90.0316 83.1582C89.8328 83.0811 89.5865 83.0531 89.4717 82.878C89.7567 82.6988 89.9644 82.4194 90.054 82.0947C90.1409 81.7748 90.1879 81.4453 90.194 81.1139L90.2612 80.0013C90.2906 79.5039 90.3046 79.0107 90.5229 78.5638C90.6209 78.3648 90.7427 78.177 90.8435 77.9795C90.9785 77.7022 91.0936 77.4156 91.1879 77.1219C91.346 76.6666 91.5056 76.2098 91.647 75.7488C91.7036 75.5255 91.7882 75.3104 91.899 75.1085C92.0292 74.8983 92.2013 74.6461 92.4253 74.604Z" fill="#E8E8F0"/>
<path d="M89.958 81.8327L90.2519 81.8425L90.3149 81.3984C90.3233 81.3095 90.344 81.2223 90.3765 81.1392C90.4253 81.0515 90.482 80.9685 90.5459 80.8912C90.8356 80.482 90.8146 79.9384 90.886 79.4409C90.9812 78.7782 91.2584 78.1561 91.5327 77.5452L92.1039 76.2715C92.1547 76.1668 92.1955 76.0575 92.2257 75.945C92.2506 75.821 92.2623 75.6946 92.2606 75.5681C92.2606 75.3719 92.325 74.6559 92.3292 74.4584C92.3292 74.3855 92.1697 74.4261 92.1361 74.3617C92.0647 74.2216 91.9667 74.6027 91.8323 74.6868C91.7056 74.7837 91.6134 74.9188 91.5691 75.0721C91.446 75.393 91.3704 75.7306 91.2556 76.0529C91.1549 76.3829 90.9713 76.6816 90.7223 76.9202C90.6061 77.0239 90.4703 77.1052 90.3597 77.2145C90.0041 77.5662 89.9706 78.121 89.958 78.6157C89.9496 78.9225 89.8922 81.8327 89.958 81.8327Z" fill="#2F2E41"/>
<path d="M94.1919 74.073C93.9119 74.1851 93.7495 74.4934 93.6697 74.7932C93.59 75.0931 93.5564 75.4097 93.4024 75.676C93.044 76.3009 92.1299 76.483 91.8766 77.1584C91.8121 77.3865 91.7777 77.622 91.7744 77.859C91.7296 78.3424 91.57 78.8104 91.5224 79.2938C91.4977 79.6698 91.5066 80.0473 91.549 80.4217L91.8696 84.2371C91.9317 84.7991 91.8991 85.3674 91.773 85.9185C92.1017 85.9659 92.4371 85.9106 92.7333 85.7602C93.0342 85.6201 93.3086 85.4351 93.5969 85.2754C94.0939 84.9952 94.6426 84.806 95.0766 84.4347C95.1553 84.3733 95.223 84.2989 95.2767 84.2147C95.3464 84.0543 95.3935 83.885 95.4167 83.7117C95.4535 83.5767 95.5003 83.4446 95.5567 83.3166C95.7175 82.932 95.8576 82.5391 95.9766 82.1396C96.0582 81.8746 96.1222 81.6045 96.1684 81.3311C96.2034 81.1139 96.2216 80.8939 96.2412 80.6753C96.2636 80.3315 96.3319 79.9922 96.4442 79.6665C96.7218 78.8894 96.879 78.0742 96.9103 77.2495C96.92 77.1303 96.912 77.0104 96.8865 76.8936C96.8382 76.7519 96.7733 76.6165 96.6933 76.49C96.5604 76.2392 96.4806 75.9632 96.3546 75.7096C96.0746 75.1351 95.5721 74.6994 95.0472 74.3336C94.7784 74.1557 94.483 73.9623 94.1919 74.073Z" fill="#2F2E41"/>
<path d="M87.5097 80.2983C87.2824 80.1793 87.0765 80.023 86.9008 79.8359C86.821 79.742 86.7608 79.6369 86.674 79.5445C86.4684 79.3251 86.2016 79.1727 85.9083 79.1073C85.617 79.043 85.319 79.0143 85.0208 79.0218C84.8216 79.0081 84.6217 79.0323 84.4315 79.0933C84.336 79.1245 84.25 79.1795 84.1815 79.253C84.113 79.3265 84.0641 79.4161 84.0396 79.5136C83.9962 79.7518 84.1515 79.983 84.3377 80.1343C84.5109 80.2759 84.7145 80.3752 84.9326 80.4244C85.1105 80.4552 85.29 80.4763 85.4702 80.4874C86.5285 80.5981 87.4733 81.174 88.4 81.6994C89.2147 82.16 90.0453 82.5911 90.8917 82.9927C90.9253 82.7392 90.9393 82.4834 90.9337 82.2277C90.9337 82.0371 90.9197 81.7457 90.7391 81.6336C90.5292 81.5019 90.1792 81.4725 89.9468 81.394C89.4013 81.2158 88.8686 81.0005 88.3524 80.7495C88.0599 80.6079 87.7799 80.458 87.5097 80.2983Z" fill="#FBBEBE"/>
<path d="M92.1356 74.314C93.1769 74.314 94.0211 73.464 94.0211 72.4154C94.0211 71.3669 93.1769 70.5168 92.1356 70.5168C91.0942 70.5168 90.25 71.3669 90.25 72.4154C90.25 73.464 91.0942 74.314 92.1356 74.314Z" fill="#FBBEBE"/>
<path d="M94.7311 76.2252C94.5811 76.4363 94.4583 76.6656 94.3658 76.9076C94.132 77.3882 93.7667 77.8001 93.5847 78.3088C93.3915 78.837 93.3985 79.4661 93.0248 79.8823C92.9496 79.9454 92.893 80.0277 92.861 80.1205C92.8587 80.1783 92.8521 80.2359 92.8414 80.2928C92.7882 80.4442 92.5404 80.4512 92.4942 80.6053C92.4816 80.6501 92.4942 80.6992 92.4718 80.7454C92.434 80.8449 92.3039 80.8589 92.2157 80.9192C92.0323 81.0439 92.0757 81.3325 91.9357 81.5119C91.8788 81.5784 91.8053 81.6288 91.7227 81.6578C91.6401 81.6869 91.5514 81.6935 91.4654 81.6772C91.2938 81.641 91.1286 81.5791 90.9754 81.4936C90.9216 81.4633 90.862 81.4447 90.8004 81.439C90.7274 81.4405 90.6565 81.4645 90.5975 81.5077C90.2489 81.729 90.0851 82.169 90.0879 82.5838C90.1125 82.9985 90.2106 83.4056 90.3777 83.786C90.3974 83.8517 90.4303 83.9127 90.4743 83.9653C90.5891 84.0872 90.7906 84.0676 90.9446 83.9989C91.0889 83.9134 91.2425 83.8448 91.4024 83.7944C91.6935 83.7411 91.9791 83.9429 92.2745 83.9261C92.4906 83.8932 92.694 83.8032 92.8638 83.6655C93.1636 83.4832 93.4321 83.2537 93.6589 82.9859C93.7877 82.8164 93.8828 82.623 93.9962 82.4422C94.141 82.2202 94.3 82.0077 94.4722 81.8061L95.5598 80.4736C95.669 80.3474 95.7669 80.2119 95.8524 80.0686C95.9505 79.8749 96.027 79.671 96.0806 79.4605C96.1971 79.1094 96.2727 78.7459 96.3059 78.3774C96.3115 78.0723 96.2848 77.7675 96.2262 77.4681C96.1896 77.1702 96.1109 76.8791 95.9924 76.6035C95.7502 76.1131 95.1749 75.7068 94.7311 76.2252Z" fill="#2F2E41"/>
<path d="M98.5185 73.7523C98.52 73.4157 98.4415 73.0835 98.2897 72.7831C98.1378 72.4828 97.9169 72.2228 97.645 72.0247C97.6368 71.4271 97.4168 70.8518 97.0243 70.4014C96.6318 69.9511 96.0922 69.6549 95.5019 69.5656C95.3877 68.9995 95.0777 68.4919 94.6263 68.1323C94.1749 67.7726 93.6112 67.584 93.0345 67.5995C92.4578 67.6151 91.9051 67.8339 91.4737 68.2174C91.0424 68.6009 90.7601 69.1245 90.6767 69.6959C89.8928 69.5194 89.176 69.7492 89.0459 70.2326C88.9059 70.7384 89.4658 71.3297 90.2945 71.5539C90.5542 71.6273 90.8248 71.6544 91.0938 71.6337C91.2865 71.917 91.5362 72.1568 91.827 72.3377C92.1177 72.5187 92.443 72.6369 92.782 72.6846C92.8816 73.1417 93.1066 73.5618 93.4318 73.8977C93.7571 74.2337 94.1695 74.472 94.6228 74.586C94.7482 74.8893 94.9428 75.159 95.1911 75.3735C95.1911 75.4323 95.1813 75.4926 95.1813 75.5542C95.1723 75.7696 95.2069 75.9846 95.283 76.1863C95.3591 76.3879 95.4752 76.5721 95.6243 76.7277C95.7734 76.8833 95.9524 77.0071 96.1505 77.0917C96.3486 77.1763 96.5617 77.2199 96.7771 77.2199C96.9925 77.2199 97.2056 77.1763 97.4037 77.0917C97.6018 77.0071 97.7808 76.8833 97.9299 76.7277C98.079 76.5721 98.1951 76.3879 98.2712 76.1863C98.3473 75.9846 98.3819 75.7696 98.3729 75.5542C98.373 75.3124 98.3209 75.0735 98.2203 74.8536C98.4171 74.5201 98.5201 74.1396 98.5185 73.7523Z" fill="#F86D70"/>
<path opacity="0.1" d="M89.5785 70.329C89.7087 69.8456 90.4184 69.6158 91.2093 69.7924C91.3013 69.212 91.5952 68.6829 92.0391 68.2983C92.4829 67.9138 93.0482 67.6985 93.6352 67.6906C93.6898 67.6906 93.7444 67.6906 93.7976 67.6906C93.5708 67.6213 93.3348 67.5864 93.0977 67.5869C92.5107 67.5949 91.9454 67.8101 91.5015 68.1946C91.0577 68.5792 90.7638 69.1084 90.6718 69.6887C89.8879 69.5121 89.1712 69.7419 89.041 70.2253C88.901 70.7312 89.4609 71.3225 90.2896 71.5467C90.4438 71.5894 90.6018 71.6167 90.7614 71.6279C89.9747 71.3981 89.4455 70.8236 89.5785 70.329Z" fill="black"/>
<path opacity="0.1" d="M95.7141 75.652C95.7141 75.5904 95.7141 75.5301 95.7239 75.4699C95.4755 75.256 95.2809 74.9868 95.1555 74.6838C94.7026 74.5687 94.2906 74.3298 93.9655 73.9938C93.6405 73.6577 93.4152 73.2378 93.3148 72.781C92.9757 72.7335 92.6503 72.6155 92.3595 72.4345C92.0688 72.2535 91.8191 72.0136 91.6266 71.7301C91.4698 71.7426 91.3121 71.7383 91.1562 71.7175C91.3498 71.9786 91.5932 72.1986 91.8725 72.3645C92.1517 72.5305 92.4612 72.6392 92.7828 72.6843C92.8824 73.1414 93.1075 73.5615 93.4327 73.8975C93.7579 74.2334 94.1704 74.4718 94.6236 74.5857C94.749 74.889 94.9437 75.1587 95.1919 75.3732C95.1919 75.432 95.1821 75.4923 95.1821 75.5539C95.175 75.9835 95.3379 76.3984 95.6353 76.7082C95.9327 77.018 96.3405 77.1974 96.7695 77.2073C96.4564 77.0864 96.1875 76.8727 95.9989 76.5948C95.8103 76.3169 95.711 75.988 95.7141 75.652Z" fill="black"/>
<path d="M92.9978 73.1111C93.1259 73.0137 93.1247 72.7964 92.9951 72.6257C92.8656 72.455 92.6568 72.3955 92.5287 72.4929C92.4007 72.5903 92.4019 72.8076 92.5314 72.9783C92.6609 73.149 92.8698 73.2084 92.9978 73.1111Z" fill="#FBBEBE"/>
<path d="M47.9265 82.5584L49.7911 81.4613C49.5391 81.0302 49.2169 80.6442 48.8378 80.3194L45.3214 81.4137L48.0763 79.7925C47.3941 79.4186 46.6264 79.2289 45.8488 79.2421C45.0711 79.2553 44.3103 79.471 43.6412 79.8678C42.9721 80.2647 42.4177 80.8291 42.0327 81.5056C41.6477 82.182 41.4452 82.9471 41.4453 83.7256C41.4453 86.2015 43.4513 86.287 45.9248 86.287C48.3983 86.287 50.4042 86.2015 50.4042 83.7256C50.4057 83.0981 50.2745 82.4773 50.0193 81.9041L47.9265 82.5584Z" fill="#B72434"/>
<path opacity="0.1" d="M48.401 84.9657C48.2025 84.7665 47.9806 84.5919 47.7403 84.4458C47.403 84.2202 47.0516 83.9905 46.6527 83.9148C46.3027 83.8475 45.9415 83.905 45.5846 83.884C44.9648 83.8461 44.3813 83.5783 43.9482 83.1329C43.6934 82.8695 43.4933 82.5459 43.1867 82.3441C42.8441 82.1403 42.4398 82.0662 42.0472 82.1353C41.9335 82.1512 41.8208 82.1741 41.7099 82.204C41.5344 82.6921 41.4449 83.2069 41.4453 83.7256C41.4453 86.2015 43.4513 86.287 45.9247 86.287C47.1258 86.287 48.2149 86.2674 49.0198 85.9633L48.8798 85.7125C48.7526 85.4442 48.5917 85.1932 48.401 84.9657Z" fill="black"/>
</g>
<defs>
<filter id="filter0_d_429:4108" x="0" y="0" width="168" height="101" filterUnits="userSpaceOnUse" color-interpolation-filters="sRGB">
<feFlood flood-opacity="0" result="BackgroundImageFix"/>
<feColorMatrix in="SourceAlpha" type="matrix" values="0 0 0 0 0 0 0 0 0 0 0 0 0 0 0 0 0 0 127 0" result="hardAlpha"/>
<feOffset dy="4"/>
<feGaussianBlur stdDeviation="2"/>
<feComposite in2="hardAlpha" operator="out"/>
<feColorMatrix type="matrix" values="0 0 0 0 0 0 0 0 0 0 0 0 0 0 0 0 0 0 0.25 0"/>
<feBlend mode="normal" in2="BackgroundImageFix" result="effect1_dropShadow_429:4108"/>
<feBlend mode="normal" in="SourceGraphic" in2="effect1_dropShadow_429:4108" result="shape"/>
</filter>
<linearGradient id="paint0_linear_429:4108" x1="83.4405" y1="89.6247" x2="83.4405" y2="67.2565" gradientUnits="userSpaceOnUse">
<stop stop-color="#808080" stop-opacity="0.25"/>
<stop offset="0.54" stop-color="#808080" stop-opacity="0.12"/>
<stop offset="1" stop-color="#808080" stop-opacity="0.1"/>
</linearGradient>
<clipPath id="clip0_429:4108">
<rect width="160" height="93" fill="white" transform="translate(4)"/>
</clipPath>
</defs>
</svg>
