<svg width="82" height="103" viewBox="0 0 82 103" fill="none" xmlns="http://www.w3.org/2000/svg">
<path d="M17.0563 33.5377C16.5624 33.5357 16.082 33.3755 15.6846 33.0802L12.3791 30.6612C12.1048 30.4595 11.774 30.3508 11.4344 30.3508C11.0948 30.3508 10.764 30.4595 10.4898 30.6612L7.18424 33.0802C6.78559 33.3719 6.3055 33.529 5.81275 33.529C5.32 33.5291 4.83988 33.372 4.44122 33.0803C4.04255 32.7886 3.7458 32.3772 3.59348 31.9052C3.44116 31.4332 3.44111 30.9247 3.59331 30.4527L4.85594 26.5387C4.96149 26.2136 4.96184 25.8631 4.85692 25.5377C4.752 25.2124 4.54723 24.929 4.27213 24.7284L0.96663 22.3095C0.568 22.0177 0.2713 21.6063 0.119053 21.1343C-0.033195 20.6622 -0.0331721 20.1537 0.119111 19.6817C0.271395 19.2097 0.568125 18.7983 0.966777 18.5066C1.36543 18.2148 1.84554 18.0577 2.3383 18.0577H6.42404C6.76359 18.0583 7.09458 17.9503 7.36929 17.7493C7.644 17.5483 7.84825 17.2646 7.9526 16.9391L9.21524 13.0252C9.36746 12.5531 9.66418 12.1416 10.0629 11.8498C10.4615 11.558 10.9417 11.4009 11.4345 11.4009C11.9273 11.4009 12.4075 11.558 12.8062 11.8498C13.2048 12.1416 13.5016 12.5531 13.6538 13.0252L14.9162 16.9391C15.0206 17.2646 15.2249 17.5483 15.4997 17.7493C15.7744 17.9503 16.1054 18.0583 16.445 18.0577H20.5307C21.0235 18.0577 21.5036 18.2148 21.9022 18.5066C22.3009 18.7983 22.5976 19.2097 22.7499 19.6817C22.9022 20.1537 22.9022 20.6622 22.75 21.1343C22.5977 21.6063 22.301 22.0177 21.9024 22.3095L18.5969 24.7284C18.3217 24.929 18.1169 25.2123 18.012 25.5377C17.907 25.8631 17.9073 26.2136 18.0129 26.5387L19.2755 30.4527C19.4334 30.9242 19.4361 31.4345 19.2834 31.9078C19.1307 32.381 18.8307 32.7922 18.4277 33.0802C18.0304 33.3754 17.55 33.5357 17.0563 33.5377Z" fill="#DE2126"/>
<path d="M49.6463 39.6763L41.5258 46.7078L28.7987 57.724L27.0784 59.2137C26.9209 59.3487 26.7917 59.5139 26.6982 59.6997C26.6046 59.8855 26.5487 60.0882 26.5337 60.2959C26.5113 60.5975 26.5747 60.8992 26.7164 61.1658C26.7704 61.2664 26.835 61.3607 26.9092 61.4471L27.832 62.5295L29.2366 64.1753C29.2625 64.2045 29.2869 64.2316 29.3147 64.2592C29.5953 64.5422 29.9716 64.7079 30.3684 64.7233C30.7651 64.7388 31.153 64.6027 31.4544 64.3423L45.8863 51.852L54.0239 44.8068C54.3394 44.5324 54.534 44.1431 54.5651 43.7244C54.5962 43.3057 54.4611 42.8916 54.1896 42.573L53.6986 41.9979L51.8637 39.8466C51.7294 39.6885 51.5654 39.5587 51.3811 39.4646C51.1969 39.3705 50.9961 39.3139 50.7901 39.298C50.5841 39.2822 50.3771 39.3075 50.1808 39.3724C49.9845 39.4373 49.8029 39.5406 49.6463 39.6763V39.6763Z" fill="#DE2126"/>
<path d="M55.8352 33.76C62.9854 33.76 68.7818 27.9216 68.7818 20.7196C68.7818 13.5176 62.9854 7.6792 55.8352 7.6792C48.685 7.6792 42.8887 13.5176 42.8887 20.7196C42.8887 27.9216 48.685 33.76 55.8352 33.76Z" fill="#DE2126"/>
<path d="M56.7861 71.3602V101.333C56.7865 101.753 56.9523 102.155 57.2471 102.452C57.5419 102.749 57.9416 102.916 58.3585 102.916H61.929C62.3459 102.916 62.7456 102.749 63.0404 102.452C63.3352 102.155 63.501 101.753 63.5014 101.333V71.3602C63.501 70.9402 63.3352 70.5376 63.0404 70.2407C62.7456 69.9438 62.3459 69.7768 61.929 69.7764H58.3585C57.9416 69.7768 57.5419 69.9438 57.2471 70.2407C56.9523 70.5376 56.7865 70.9402 56.7861 71.3602Z" fill="#2F2E41"/>
<path d="M49.2412 71.3602V101.333C49.2412 101.541 49.2819 101.747 49.3609 101.939C49.4399 102.131 49.5557 102.305 49.7017 102.453C49.8477 102.6 50.0211 102.716 50.2118 102.796C50.4026 102.875 50.6071 102.916 50.8136 102.916H54.3841C54.801 102.916 55.2007 102.749 55.4955 102.452C55.7903 102.155 55.956 101.753 55.9564 101.333V71.3602C55.956 70.9402 55.7903 70.5376 55.4955 70.2407C55.2007 69.9438 54.801 69.7768 54.3841 69.7764H50.8136C50.6071 69.7764 50.4026 69.8173 50.2118 69.8969C50.0211 69.9765 49.8477 70.0931 49.7017 70.2402C49.5557 70.3873 49.4399 70.5619 49.3609 70.754C49.2819 70.9462 49.2412 71.1522 49.2412 71.3602Z" fill="#2F2E41"/>
<path d="M50.6907 75.4657C49.3472 75.4645 48.0212 75.1585 46.8112 74.5705C45.6011 73.9826 44.538 73.1277 43.7008 72.0693C42.8636 71.011 42.2737 69.7763 41.975 68.457C41.6763 67.1376 41.6763 65.7675 41.9751 64.4481L46.014 46.6147C46.0167 44.7701 46.5241 42.962 47.4804 41.389C48.4368 39.8159 49.8051 38.5388 51.435 37.6978C53.0649 36.8569 54.8934 36.4847 56.7196 36.6221C58.5458 36.7596 60.299 37.4013 61.7867 38.4769C63.0727 39.4068 64.1209 40.6313 64.8447 42.0494C65.5684 43.4675 65.9472 45.0387 65.9496 46.6332C65.9552 46.7943 66.5183 63.3792 66.7544 71.0431C66.7705 71.5675 66.6836 72.0899 66.4986 72.5803C66.3137 73.0707 66.0343 73.5194 65.6766 73.9007C65.3189 74.2821 64.8899 74.5884 64.4143 74.8023C63.9387 75.0161 63.4259 75.1331 62.9052 75.1466L50.9788 75.4613C50.8826 75.4641 50.7863 75.4657 50.6907 75.4657Z" fill="#2F2E41"/>
<path d="M44.9024 26.4843L44.9159 25.997C44.0158 25.9718 43.2223 25.9149 42.6261 25.4761C42.457 25.3446 42.3181 25.178 42.2187 24.9877C42.1193 24.7973 42.0617 24.5875 42.05 24.3727C42.0395 24.2415 42.0592 24.1096 42.1076 23.9873C42.156 23.865 42.2317 23.7555 42.3289 23.6675C42.7247 23.3308 43.3616 23.4397 43.8258 23.6541L44.2261 23.839L43.4584 18.1885L42.9791 18.2546L43.6321 23.0612C43.0013 22.8744 42.4169 22.9548 42.0166 23.2953C41.8629 23.4305 41.7423 23.5996 41.6642 23.7895C41.5861 23.9793 41.5527 24.1848 41.5665 24.3899C41.5806 24.6785 41.6573 24.9605 41.791 25.2161C41.9247 25.4717 42.1123 25.6948 42.3407 25.8697C43.1068 26.4336 44.1024 26.4617 44.9024 26.4843Z" fill="#2F2E41"/>
<path d="M48.8332 18.6689H46.2275V19.1563H48.8332V18.6689Z" fill="#2F2E41"/>
<path d="M59.2172 42.1111L59.6623 52.8881L60.3566 69.7761L60.4509 72.0591C60.4585 72.2673 60.5071 72.4719 60.5939 72.6609C60.6807 72.85 60.804 73.0198 60.9565 73.1605C61.1776 73.3651 61.452 73.502 61.7475 73.5552C61.8593 73.5749 61.9728 73.5822 62.0862 73.5771L63.5013 73.5187L65.6543 73.4285C65.693 73.4261 65.7293 73.4236 65.768 73.4188C66.1624 73.3723 66.5248 73.1776 66.7827 72.8736C67.0406 72.5695 67.175 72.1785 67.159 71.7789L66.3728 52.6298L65.9277 41.8308C65.9095 41.4113 65.7268 41.0162 65.4198 40.7321C65.1128 40.448 64.7066 40.2981 64.29 40.3153L63.5376 40.347L60.7243 40.4639C60.5179 40.4721 60.3151 40.5213 60.1276 40.6086C59.94 40.6958 59.7714 40.8195 59.6315 40.9725C59.4915 41.1255 59.3828 41.3049 59.3117 41.5002C59.2406 41.6956 59.2085 41.9032 59.2172 42.1111Z" fill="#DE2126"/>
<path d="M58.1318 43.0223V51.3067C58.1321 51.7194 58.2923 52.1156 58.5783 52.4109C58.8643 52.7063 59.2535 52.8775 59.663 52.8881C59.6766 52.8902 59.6904 52.891 59.7042 52.8905H65.51C65.6033 52.8903 65.6964 52.8813 65.7881 52.8637C65.9971 52.8269 66.1963 52.7473 66.3735 52.6298C66.5908 52.4852 66.7692 52.2888 66.8929 52.0579C67.0166 51.8271 67.0817 51.569 67.0823 51.3067V43.0223C67.0809 41.8273 66.6089 40.6816 65.77 39.8365C64.931 38.9915 63.7936 38.5161 62.6071 38.5147C62.2998 38.5139 61.9933 38.5458 61.6926 38.6097C60.6868 38.8225 59.7841 39.3771 59.1359 40.1804C58.4876 40.9838 58.1331 41.9871 58.1318 43.0223Z" fill="#2F2E41"/>
<path d="M41.1685 46.4798C41.2284 46.6767 41.3262 46.8596 41.4564 47.0183L45.1334 51.5431C45.199 51.6267 45.2746 51.702 45.3583 51.7672C45.6392 51.9978 45.9906 52.1235 46.353 52.1231C46.7153 52.1227 47.0664 51.9961 47.3468 51.7648L53.7113 46.5188C54.1661 46.1438 54.5431 45.6822 54.8207 45.1605C55.0984 44.6387 55.2713 44.067 55.3295 43.4779C55.3878 42.8888 55.3304 42.294 55.1604 41.7273C54.9905 41.1606 54.7113 40.6332 54.339 40.1751C53.9667 39.7171 53.5085 39.3374 52.9905 39.0577C52.4724 38.778 51.9048 38.6039 51.32 38.5452C50.7352 38.4865 50.1446 38.5444 49.582 38.7155C49.0194 38.8867 48.4957 39.1679 48.041 39.5429L41.6765 44.7889C41.4356 44.9887 41.2588 45.2559 41.1683 45.5569C41.0779 45.8578 41.078 46.179 41.1685 46.4798Z" fill="#2F2E41"/>
<path d="M53.8526 13.0521C51.6958 13.9566 49.3731 14.9572 46.9829 14.6799C45.0248 14.4528 43.1431 13.2997 42.6921 11.2619C42.2611 9.31463 43.152 7.28331 44.572 5.97896C46.1782 4.50351 48.3958 3.78968 50.5121 3.4886C51.7908 3.3067 53.2114 3.29493 54.3903 3.89778C55.334 4.38033 56.1823 5.25283 56.3282 6.34961L57.235 6.10223C56.5942 5.008 56.9008 3.68176 57.6099 2.69883C58.4625 1.51699 59.8938 1.02481 61.2994 0.983693C64.1581 0.900079 67.0833 2.23631 69.3853 3.85364C71.6524 5.45225 73.5187 7.56091 74.836 10.0124C76.3133 12.7662 77.1268 16.0591 76.6299 19.1838C76.1242 22.3641 74.0817 25.3819 70.9201 26.3392C70.3218 26.5204 70.5767 27.4668 71.1788 27.2845C74.197 26.3706 76.4263 23.7382 77.2826 20.7362C78.2666 17.2865 77.5897 13.5084 76.0804 10.3187C74.7421 7.53042 72.7447 5.11575 70.2634 3.28675C67.7832 1.44521 64.5685 -0.0361201 61.4354 0.000670782C59.6352 0.0218052 57.8916 0.668076 56.802 2.1598C55.8716 3.4334 55.5731 5.19423 56.3947 6.59699C56.6202 6.98206 57.3688 6.85577 57.3014 6.34961C56.9599 3.78307 54.494 2.46366 52.1195 2.4067C50.7792 2.40153 49.4459 2.60012 48.1645 2.99575C46.9789 3.32287 45.8536 3.84093 44.8322 4.52989C42.9147 5.86698 41.5657 8.0022 41.6197 10.4067C41.6736 12.8055 43.2779 14.6481 45.5015 15.3575C48.4362 16.2937 51.412 15.1293 54.1114 13.9973C54.2334 13.9591 54.3364 13.8755 54.3996 13.7635C54.4627 13.6516 54.4811 13.5196 54.4512 13.3944C54.4163 13.2695 54.3339 13.1634 54.2218 13.0993C54.1097 13.0352 53.9771 13.0183 53.8526 13.0521L53.8526 13.0521Z" fill="#2F2E41"/>
</svg>
