<svg width="150" height="81" viewBox="0 0 150 81" fill="none" xmlns="http://www.w3.org/2000/svg">
<path d="M32.4235 80.8248H32.0858C32.0858 76.6004 30.4133 72.5492 27.4364 69.5621C24.4594 66.5751 20.4218 64.897 16.2118 64.897C12.0017 64.897 7.96409 66.5751 4.98713 69.5621C2.01018 72.5492 0.337745 76.6004 0.337745 80.8248H0C6.40694e-08 76.5106 1.70802 72.3731 4.74831 69.3225C7.78861 66.2719 11.9121 64.5581 16.2118 64.5581C20.5114 64.5581 24.6349 66.2719 27.6752 69.3225C30.7155 72.3731 32.4235 76.5106 32.4235 80.8248Z" fill="#3F3D56"/>
<path d="M149.959 80.8248H149.621C149.621 76.6005 147.948 72.5492 144.972 69.5621C141.995 66.5751 137.957 64.897 133.747 64.897C129.537 64.897 125.499 66.5751 122.522 69.5621C119.545 72.5492 117.873 76.6005 117.873 80.8248H117.535C117.535 76.5106 119.243 72.3731 122.283 69.3225C125.324 66.2719 129.447 64.5581 133.747 64.5581C138.047 64.5581 142.17 66.2719 145.21 69.3225C148.251 72.3731 149.959 76.5106 149.959 80.8248Z" fill="#3F3D56"/>
<path d="M110.273 42.0224H109.936C109.936 25.9521 96.9057 12.878 80.8897 12.878C64.8736 12.878 51.8436 25.9521 51.8436 42.0224H51.5059C51.5059 25.7652 64.6874 12.5391 80.8897 12.5391C97.092 12.5391 110.273 25.7652 110.273 42.0224Z" fill="#3F3D56"/>
<path d="M24.5709 13.3861C28.2549 13.3861 31.2413 10.3895 31.2413 6.69305C31.2413 2.99658 28.2549 0 24.5709 0C20.8869 0 17.9004 2.99658 17.9004 6.69305C17.9004 10.3895 20.8869 13.3861 24.5709 13.3861Z" fill="#FF6584"/>
<path d="M25.9883 52.7623L37.4481 39.0684H59.9789L73.7478 52.525L73.4697 52.7044H73.569V80.6941H26.004V52.7044L25.9883 52.7623Z" fill="#3F3D56"/>
<path d="M32.8827 46.8086H35.4805V37.7859H32.8827V46.8086Z" fill="#3F3D56"/>
<path d="M37.2694 38.8887L51.3957 55.5066V80.6938H26.0039V52.3453L37.2694 38.8887Z" fill="#DE2126"/>
<path d="M48.131 58.8047H42.9453V64.125H48.131V58.8047Z" fill="#3F3D56"/>
<path d="M48.131 66.0439H42.9453V71.3642H48.131V66.0439Z" fill="#3F3D56"/>
<path d="M48.131 58.8047H42.9453V64.125H48.131V58.8047Z" fill="white"/>
<path d="M48.131 66.0439H42.9453V71.3642H48.131V66.0439Z" fill="white"/>
<path d="M40.9591 58.8047H35.7734V64.125H40.9591V58.8047Z" fill="#3F3D56"/>
<path d="M40.9591 66.0439H35.7734V71.3642H40.9591V66.0439Z" fill="#3F3D56"/>
<path d="M40.9591 58.8047H35.7734V64.125H40.9591V58.8047Z" fill="white"/>
<path d="M40.9591 66.0439H35.7734V71.3642H40.9591V66.0439Z" fill="white"/>
<path d="M33.7872 58.8047H28.6016V64.125H33.7872V58.8047Z" fill="#3F3D56"/>
<path d="M33.7872 66.0439H28.6016V71.3642H33.7872V66.0439Z" fill="#3F3D56"/>
<path d="M33.7872 58.8047H28.6016V64.125H33.7872V58.8047Z" fill="white"/>
<path d="M33.7872 66.0439H28.6016V71.3642H33.7872V66.0439Z" fill="white"/>
<path d="M84.2675 6.77783H81.9033V12.7084H84.2675V6.77783Z" fill="#DE2126"/>
<path d="M84.0988 12.2002H64.0029V80.8252H84.0988V12.2002Z" fill="#DE2126"/>
<path d="M92.2045 12.2002H84.0986V80.8252H92.2045V12.2002Z" fill="#3F3D56"/>
<path d="M70.6735 18.1304H67.6338V21.1804H70.6735V18.1304Z" fill="white"/>
<path d="M75.57 18.1304H72.5303V21.1804H75.57V18.1304Z" fill="white"/>
<path d="M80.4674 18.1304H77.4277V21.1804H80.4674V18.1304Z" fill="white"/>
<path d="M70.7575 25.0776H67.7178V28.1276H70.7575V25.0776Z" fill="white"/>
<path d="M75.6549 25.0776H72.6152V28.1276H75.6549V25.0776Z" fill="white"/>
<path d="M80.5524 25.0776H77.5127V28.1276H80.5524V25.0776Z" fill="white"/>
<path d="M70.8424 32.0249H67.8027V35.0749H70.8424V32.0249Z" fill="white"/>
<path d="M75.7389 32.0249H72.6992V35.0749H75.7389V32.0249Z" fill="white"/>
<path d="M80.6364 32.0249H77.5967V35.0749H80.6364V32.0249Z" fill="white"/>
<path d="M70.9264 38.9722H67.8867V42.0222H70.9264V38.9722Z" fill="white"/>
<path d="M75.8239 38.9722H72.7842V42.0222H75.8239V38.9722Z" fill="white"/>
<path d="M80.7214 38.9722H77.6816V42.0222H80.7214V38.9722Z" fill="white"/>
<path d="M71.0104 45.9194H67.9707V48.9694H71.0104V45.9194Z" fill="white"/>
<path d="M75.9079 45.9194H72.8682V48.9694H75.9079V45.9194Z" fill="white"/>
<path d="M80.8053 45.9194H77.7656V48.9694H80.8053V45.9194Z" fill="white"/>
<path d="M71.0954 52.8667H68.0557V55.9167H71.0954V52.8667Z" fill="white"/>
<path d="M75.9928 52.8667H72.9531V55.9167H75.9928V52.8667Z" fill="white"/>
<path d="M80.8903 52.8667H77.8506V55.9167H80.8903V52.8667Z" fill="white"/>
<path d="M71.1794 59.814H68.1396V62.864H71.1794V59.814Z" fill="white"/>
<path d="M76.0768 59.814H73.0371V62.864H76.0768V59.814Z" fill="white"/>
<path d="M80.9743 59.814H77.9346V62.864H80.9743V59.814Z" fill="white"/>
<path d="M71.2643 66.7612H68.2246V69.8112H71.2643V66.7612Z" fill="white"/>
<path d="M76.1618 66.7612H73.1221V69.8112H76.1618V66.7612Z" fill="white"/>
<path d="M76.1618 74.8945H73.1221V80.6556H76.1618V74.8945Z" fill="white"/>
<path d="M81.0592 66.7612H78.0195V69.8112H81.0592V66.7612Z" fill="white"/>
<path d="M85.4496 6.77783H84.0986V12.5389H85.4496V6.77783Z" fill="#3F3D56"/>
<path d="M109.599 36.939H107.234V40.4539H109.599V36.939Z" fill="#DE2126"/>
<path d="M109.43 40.1523H89.334V80.8248H109.43V40.1523Z" fill="#DE2126"/>
<path d="M117.536 40.1523H109.43V80.8248H117.536V40.1523Z" fill="#3F3D56"/>
<path d="M96.3415 45.9194H93.3018V48.9694H96.3415V45.9194Z" fill="white"/>
<path d="M101.239 45.9194H98.1992V48.9694H101.239V45.9194Z" fill="white"/>
<path d="M106.136 45.9194H103.097V48.9694H106.136V45.9194Z" fill="white"/>
<path d="M96.4264 52.8667H93.3867V55.9167H96.4264V52.8667Z" fill="white"/>
<path d="M101.324 52.8667H98.2842V55.9167H101.324V52.8667Z" fill="white"/>
<path d="M106.22 52.8667H103.181V55.9167H106.22V52.8667Z" fill="white"/>
<path d="M96.5104 59.814H93.4707V62.864H96.5104V59.814Z" fill="white"/>
<path d="M101.408 59.814H98.3682V62.864H101.408V59.814Z" fill="white"/>
<path d="M106.305 59.814H103.266V62.864H106.305V59.814Z" fill="white"/>
<path d="M96.5954 66.7612H93.5557V69.8112H96.5954V66.7612Z" fill="white"/>
<path d="M101.493 66.7612H98.4531V69.8112H101.493V66.7612Z" fill="white"/>
<path d="M101.493 74.8945H98.4531V80.6556H101.493V74.8945Z" fill="white"/>
<path d="M106.389 66.7612H103.35V69.8112H106.389V66.7612Z" fill="white"/>
<path d="M110.781 36.939H109.43V40.3534H110.781V36.939Z" fill="#3F3D56"/>
<path d="M150 80.6201H0.0410156V80.9998H150V80.6201Z" fill="#3F3D56"/>
<path d="M123.726 72.8747C126.154 72.8747 128.123 70.8991 128.123 68.4622C128.123 66.0253 126.154 64.0498 123.726 64.0498C121.297 64.0498 119.328 66.0253 119.328 68.4622C119.328 70.8991 121.297 72.8747 123.726 72.8747Z" fill="#DE2126"/>
<path opacity="0.2" d="M126.997 65.5151C127.408 66.4779 127.463 67.5556 127.154 68.5558C126.846 69.5559 126.192 70.4133 125.312 70.9746C124.431 71.536 123.38 71.7648 122.346 71.6202C121.313 71.4756 120.364 70.9669 119.67 70.1851C119.92 70.7733 120.296 71.2998 120.769 71.7282C121.243 72.1565 121.803 72.4764 122.412 72.6658C123.021 72.8551 123.664 72.9094 124.296 72.8247C124.928 72.7401 125.534 72.5186 126.072 72.1757C126.61 71.8327 127.067 71.3764 127.412 70.8385C127.757 70.3005 127.982 69.6937 128.07 69.0602C128.158 68.4266 128.107 67.7814 127.922 67.1693C127.737 66.5572 127.422 65.9927 126.997 65.5151Z" fill="black"/>
<path d="M123.738 68.4624H123.75L123.968 80.9723H123.509L123.738 68.4624Z" fill="#3F3D56"/>
<path d="M124.539 75.2766L124.438 75.0835L123.711 75.4675L123.812 75.6606L124.539 75.2766Z" fill="#3F3D56"/>
<path d="M136.655 68.6585C140.348 68.6585 143.342 65.6544 143.342 61.9487C143.342 58.2429 140.348 55.2388 136.655 55.2388C132.962 55.2388 129.968 58.2429 129.968 61.9487C129.968 65.6544 132.962 68.6585 136.655 68.6585Z" fill="#DE2126"/>
<path opacity="0.2" d="M141.629 57.4673C142.253 58.9313 142.338 60.5702 141.868 62.0911C141.398 63.612 140.405 64.9158 139.066 65.7694C137.726 66.6231 136.128 66.9711 134.556 66.7511C132.984 66.5312 131.542 65.7577 130.486 64.5688C130.867 65.4633 131.438 66.2639 132.158 66.9153C132.878 67.5667 133.73 68.0532 134.656 68.3411C135.582 68.629 136.56 68.7115 137.521 68.5828C138.482 68.4541 139.403 68.1173 140.222 67.5957C141.04 67.0742 141.736 66.3804 142.26 65.5623C142.785 64.7443 143.126 63.8216 143.26 62.8581C143.394 61.8947 143.317 60.9136 143.036 59.9827C142.754 59.0519 142.274 58.1936 141.629 57.4673Z" fill="black"/>
<path d="M136.673 61.9487H136.692L137.022 80.9724H136.324L136.673 61.9487Z" fill="#3F3D56"/>
<path d="M137.89 72.3107L137.736 72.0171L136.631 72.6011L136.785 72.8947L137.89 72.3107Z" fill="#3F3D56"/>
<path d="M4.50203 72.7052C6.93072 72.7052 8.89956 70.7297 8.89956 68.2928C8.89956 65.8559 6.93072 63.8804 4.50203 63.8804C2.07334 63.8804 0.104492 65.8559 0.104492 68.2928C0.104492 70.7297 2.07334 72.7052 4.50203 72.7052Z" fill="#DE2126"/>
<path opacity="0.2" d="M7.7729 65.3457C8.18308 66.3085 8.23873 67.3862 7.92988 68.3863C7.62104 69.3865 6.96783 70.2438 6.08698 70.8052C5.20614 71.3666 4.15505 71.5954 3.12154 71.4508C2.08804 71.3061 1.13946 70.7975 0.445312 70.0157C0.695887 70.6039 1.07092 71.1304 1.54442 71.5588C2.01793 71.9871 2.57858 72.307 3.18755 72.4964C3.79651 72.6857 4.43922 72.7399 5.07114 72.6553C5.70307 72.5707 6.3091 72.3492 6.84725 72.0062C7.3854 71.6633 7.84281 71.207 8.18777 70.669C8.53273 70.1311 8.75701 69.5243 8.84506 68.8907C8.93311 68.2572 8.88283 67.612 8.6977 66.9999C8.51257 66.3877 8.19702 65.8233 7.77291 65.3457H7.7729Z" fill="black"/>
<path d="M4.51368 68.293H4.52584L4.74318 80.8029H4.28418L4.51368 68.293Z" fill="#3F3D56"/>
<path d="M5.31517 75.1071L5.21387 74.9141L4.48694 75.2981L4.58824 75.4911L5.31517 75.1071Z" fill="#3F3D56"/>
<path d="M102.407 6.32609L103.962 5.07851C102.754 4.94482 102.258 5.60569 102.055 6.12879C101.111 5.73567 100.084 6.25086 100.084 6.25086L103.194 7.38389C103.038 6.96334 102.764 6.59641 102.407 6.32609Z" fill="#3F3D56"/>
<path d="M24.3875 12.5956L25.942 11.348C24.7344 11.2143 24.2381 11.8752 24.0351 12.3983C23.0916 12.0052 22.0645 12.5204 22.0645 12.5204L25.1749 13.6534C25.018 13.2329 24.7448 12.8659 24.3875 12.5956Z" fill="#3F3D56"/>
<path d="M126.049 19.0346L127.603 17.787C126.395 17.6533 125.899 18.3142 125.696 18.8373C124.753 18.4442 123.726 18.9594 123.726 18.9594L126.836 20.0924C126.679 19.6718 126.406 19.3049 126.049 19.0346Z" fill="#3F3D56"/>
<path d="M37.2215 9.20695L38.776 7.95937C37.5683 7.82567 37.0721 8.48655 36.869 9.00964C35.9256 8.61653 34.8984 9.13172 34.8984 9.13172L38.0089 10.2647C37.852 9.8442 37.5788 9.47726 37.2215 9.20695Z" fill="#3F3D56"/>
<path d="M40.0925 22.7626L41.6471 21.515C40.4394 21.3813 39.9432 22.0422 39.7401 22.5653C38.7966 22.1722 37.7695 22.6874 37.7695 22.6874L40.88 23.8204C40.7231 23.3999 40.4499 23.0329 40.0925 22.7626Z" fill="#3F3D56"/>
<path d="M100.549 29.8793L102.103 28.6317C100.895 28.498 100.399 29.1589 100.196 29.682C99.2527 29.2889 98.2256 29.8041 98.2256 29.8041L101.336 30.9371C101.179 30.5166 100.906 30.1496 100.549 29.8793Z" fill="#3F3D56"/>
<path d="M17.9008 77.2666H7.43066V77.6055H9.06349V80.8249H9.40124V77.6055H15.7613V80.8249H16.0991V77.6055H17.9008V77.2666Z" fill="#3F3D56"/>
<path d="M28.5397 78.6221C28.1264 78.622 27.7204 78.7313 27.3627 78.9389C26.9994 78.6092 26.5485 78.3925 26.0648 78.315C25.5811 78.2375 25.0854 78.3025 24.6378 78.5022C24.1902 78.7019 23.81 79.0277 23.5434 79.44C23.2768 79.8523 23.1351 80.3334 23.1357 80.8249H30.8954C30.8531 80.2269 30.5865 79.6672 30.1494 79.2584C29.7123 78.8497 29.1371 78.6223 28.5397 78.6221Z" fill="#3F3D56"/>
<path d="M68.5621 78.6221C68.1489 78.622 67.7429 78.7313 67.3852 78.9389C67.0219 78.6092 66.571 78.3925 66.0873 78.315C65.6036 78.2375 65.1078 78.3025 64.6602 78.5022C64.2127 78.7019 63.8325 79.0277 63.5659 79.44C63.2992 79.8523 63.1576 80.3334 63.1582 80.8249H70.9178C70.8755 80.2269 70.609 79.6672 70.1719 79.2584C69.7348 78.8497 69.1596 78.6223 68.5621 78.6221Z" fill="#3F3D56"/>
<path d="M94.7379 78.6221C94.3246 78.622 93.9187 78.7313 93.5609 78.9389C93.1976 78.6092 92.7467 78.3925 92.263 78.315C91.7793 78.2375 91.2836 78.3025 90.836 78.5022C90.3884 78.7019 90.0083 79.0277 89.7416 79.44C89.475 79.8523 89.3334 80.3334 89.334 80.8249H97.0936C97.0513 80.2269 96.7848 79.6672 96.3477 79.2584C95.9106 78.8497 95.3354 78.6223 94.7379 78.6221Z" fill="#3F3D56"/>
<path d="M129.187 78.6221C128.774 78.622 128.368 78.7313 128.01 78.9389C127.647 78.6092 127.196 78.3925 126.712 78.315C126.229 78.2375 125.733 78.3025 125.285 78.5022C124.838 78.7019 124.457 79.0277 124.191 79.44C123.924 79.8523 123.783 80.3334 123.783 80.8249H131.543C131.501 80.2269 131.234 79.6672 130.797 79.2584C130.36 78.8497 129.785 78.6223 129.187 78.6221Z" fill="#3F3D56"/>
<path d="M145.737 78.6221C145.324 78.622 144.918 78.7313 144.56 78.9389C144.197 78.6092 143.746 78.3925 143.262 78.315C142.778 78.2375 142.283 78.3025 141.835 78.5022C141.387 78.7019 141.007 79.0277 140.741 79.44C140.474 79.8523 140.332 80.3334 140.333 80.8249H148.093C148.05 80.2269 147.784 79.6672 147.347 79.2584C146.91 78.8497 146.334 78.6223 145.737 78.6221Z" fill="#3F3D56"/>
<path d="M21.785 68.9639H19.083V71.675H20.3355V80.8101H20.6733V71.675H21.785V68.9639Z" fill="#3F3D56"/>
<path d="M17.9213 76.2529H7.45117V76.5918H17.9213V76.2529Z" fill="#3F3D56"/>
<path d="M17.9213 75.4058H7.45117V75.7447H17.9213V75.4058Z" fill="#3F3D56"/>
<path d="M17.9213 74.5581H7.45117V74.897H17.9213V74.5581Z" fill="#3F3D56"/>
</svg>
