<svg width="117" height="96" viewBox="0 0 117 96" fill="none" xmlns="http://www.w3.org/2000/svg">
<g clip-path="url(#clip0_401:4639)">
<path d="M106.967 87.4382C105.757 91.4675 107.635 95.587 107.635 95.587C107.635 95.587 111.476 93.1738 112.686 89.1445C113.896 85.1152 112.018 80.9956 112.018 80.9956C112.018 80.9956 108.177 83.4089 106.967 87.4382Z" fill="#F2F2F2"/>
<path d="M108.804 87.5474C109.823 91.6291 107.752 95.6559 107.752 95.6559C107.752 95.6559 104.03 93.0651 103.011 88.9835C101.993 84.9019 104.063 80.875 104.063 80.875C104.063 80.875 107.786 83.4658 108.804 87.5474Z" fill="#F2F2F2"/>
<path d="M9.30584 87.5988C8.09557 91.6281 9.9739 95.7477 9.9739 95.7477C9.9739 95.7477 13.8145 93.3345 15.0248 89.3051C16.235 85.2758 14.3567 81.1562 14.3567 81.1562C14.3567 81.1562 10.5161 83.5695 9.30584 87.5988Z" fill="#E6E6E6"/>
<path d="M11.1433 87.7076C12.1619 91.7892 10.0911 95.8161 10.0911 95.8161C10.0911 95.8161 6.36873 93.2253 5.35012 89.1437C4.3315 85.062 6.40234 81.0352 6.40234 81.0352C6.40234 81.0352 10.1247 83.6259 11.1433 87.7076Z" fill="#E6E6E6"/>
<path d="M54.1494 49.7792C58.9129 49.7792 62.7744 45.9306 62.7744 41.183C62.7744 36.4355 58.9129 32.5869 54.1494 32.5869C49.386 32.5869 45.5244 36.4355 45.5244 41.183C45.5244 45.9306 49.386 49.7792 54.1494 49.7792Z" fill="#DE2126"/>
<path d="M53.7571 95.688H51.3786C51.1009 95.6877 50.8346 95.5776 50.6382 95.3819C50.4418 95.1862 50.3314 94.9208 50.3311 94.644V74.8858C50.3314 74.609 50.4418 74.3437 50.6382 74.1479C50.8346 73.9522 51.1009 73.8421 51.3786 73.8418H53.7571C54.0349 73.8421 54.3011 73.9522 54.4975 74.1479C54.6939 74.3437 54.8043 74.609 54.8047 74.8858V94.644C54.8043 94.9208 54.6939 95.1862 54.4975 95.3819C54.3011 95.5776 54.0349 95.6877 53.7571 95.688Z" fill="#DE2126"/>
<path d="M60.4541 63.6794L59.3641 61.5724C59.2371 61.3262 59.2133 61.0399 59.2978 60.7763C59.3824 60.5126 59.5684 60.2931 59.8151 60.166L77.4356 51.1118C77.6826 50.9852 77.9698 50.9614 78.2344 51.0457C78.4989 51.13 78.7191 51.3154 78.8467 51.5613L79.9367 53.6683C80.0636 53.9145 80.0875 54.2008 80.0029 54.4644C79.9184 54.7281 79.7323 54.9476 79.4856 55.0747L61.8652 64.129C61.6182 64.2555 61.3309 64.2793 61.0664 64.195C60.8018 64.1107 60.5816 63.9253 60.4541 63.6794Z" fill="#DE2126"/>
<path d="M66.5485 85.0907L64.6136 86.4695C64.3875 86.6303 64.1066 86.6951 63.8327 86.6497C63.5587 86.6043 63.314 86.4525 63.1522 86.2275L51.6217 70.1551C51.4604 69.9298 51.3954 69.6499 51.4409 69.3768C51.4865 69.1038 51.6388 68.8599 51.8645 68.6986L53.7994 67.3198C54.0255 67.159 54.3064 67.0943 54.5803 67.1396C54.8543 67.185 55.099 67.3368 55.2608 67.5618L66.7913 83.6342C66.9526 83.8595 67.0176 84.1394 66.9721 84.4125C66.9265 84.6855 66.7742 84.9294 66.5485 85.0907Z" fill="#DE2126"/>
<path d="M60.3005 95.5495L58.1712 94.4929C57.6541 94.2364 57.3635 93.7672 57.5234 93.4471L63.0113 82.461C63.1712 82.1409 63.7219 82.0892 64.239 82.3458L66.3683 83.4023C66.8854 83.6589 67.176 84.1281 67.0161 84.4481L61.5282 95.4343C61.3683 95.7544 60.8175 95.8061 60.3005 95.5495Z" fill="#DE2126"/>
<path d="M60.2453 44.3621L60.2363 44.0409C60.8359 44.0242 61.3646 43.9867 61.7618 43.6975C61.8744 43.6108 61.967 43.501 62.0332 43.3755C62.0994 43.25 62.1378 43.1118 62.1456 42.9702C62.1526 42.8837 62.1394 42.7967 62.1072 42.7161C62.075 42.6354 62.0245 42.5633 61.9598 42.5053C61.6962 42.2832 61.2719 42.355 60.9626 42.4965L60.6959 42.6184L61.2073 38.8936L61.5266 38.9372L61.0916 42.1056C61.5119 41.9825 61.9012 42.0353 62.1678 42.26C62.2702 42.349 62.3506 42.4605 62.4026 42.5857C62.4546 42.7109 62.4769 42.8463 62.4677 42.9815C62.4582 43.1717 62.4072 43.3576 62.3181 43.5261C62.229 43.6946 62.104 43.8417 61.9519 43.957C61.4415 44.3287 60.7783 44.3472 60.2453 44.3621Z" fill="#2F2E41"/>
<path d="M59.3619 39.2104H57.626V39.5317H59.3619V39.2104Z" fill="#2F2E41"/>
<path d="M67.874 70.5115C67.874 77.5193 61.207 76.9362 54.1756 76.9362C47.1442 76.9362 42.4111 77.5193 42.4111 70.5115C42.4111 63.5037 47.1442 51.5586 54.1756 51.5586C61.207 51.5586 67.874 63.5037 67.874 70.5115Z" fill="#CCCCCC"/>
<path d="M59.2472 32.0805C58.925 30.1666 57.7086 28.5213 56.1435 27.4106C54.6092 26.3411 52.7749 25.7822 50.9028 25.8138C47.2779 25.8535 43.7335 27.877 41.79 30.9134C39.637 34.2773 39.5945 38.6701 41.05 42.3071C41.4221 43.244 41.8939 44.1385 42.4572 44.9752C43.082 45.8979 43.8389 46.7119 44.5751 47.5452C45.9471 49.0983 47.5201 51.2582 46.6007 53.4252C46.2611 54.2256 45.5447 54.9534 44.6331 55.0107C43.8635 55.0591 43.0103 54.6922 42.669 53.9712C42.2868 53.1635 42.816 52.2076 43.598 51.877C44.4182 51.5303 45.2706 52.0418 45.5735 52.8285C45.7241 53.1908 45.7292 53.5968 45.5878 53.9627C45.5577 54.0183 45.5498 54.0833 45.5659 54.1445C45.582 54.2057 45.6209 54.2585 45.6746 54.2923C45.73 54.3242 45.7958 54.333 45.8577 54.3168C45.9197 54.3006 45.9727 54.2607 46.0053 54.2059C46.168 53.8004 46.2034 53.3553 46.1066 52.9294C46.0098 52.5035 45.7855 52.117 45.4634 51.821C45.1366 51.5089 44.7093 51.3223 44.2575 51.2945C43.8057 51.2667 43.3586 51.3993 42.9956 51.6689C42.2292 52.2269 41.8239 53.2256 42.2123 54.1268C42.5486 54.9071 43.3623 55.3783 44.184 55.4778C44.6373 55.5223 45.0945 55.4491 45.511 55.2653C45.9274 55.0815 46.2891 54.7934 46.5607 54.429C47.1668 53.6381 47.4414 52.6437 47.3268 51.655C47.0578 49.1889 45.0809 47.5029 43.5969 45.6981C42.2773 44.081 41.3473 42.1837 40.8784 40.1523C40.3986 38.1556 40.4165 36.0722 40.9305 34.084C41.429 32.1988 42.4537 30.4932 43.8855 29.1649C45.2598 27.8956 46.9381 26.9993 48.7597 26.562C50.5606 26.1152 52.4558 26.2301 54.1891 26.8913C56.0058 27.6096 57.6181 29.0309 58.3865 30.8407C58.5711 31.2798 58.7035 31.7388 58.781 32.2086C58.8324 32.5137 59.2983 32.3843 59.2472 32.0805V32.0805Z" fill="#2F2E41"/>
<path d="M59.2365 32.153C60.0436 31.3779 61.3595 31.2661 62.3321 31.7911C63.3381 32.3342 63.7418 33.5038 63.4838 34.586C63.3513 35.1906 63.0008 35.7256 62.4989 36.0897C62.2453 36.2657 62.4867 36.6835 62.7429 36.5058C63.8311 35.7508 64.2894 34.2958 63.9179 33.0371C63.5301 31.7229 62.2422 30.9384 60.8972 30.9907C60.1511 31.0105 59.4384 31.3028 58.8946 31.8122C58.6701 32.0278 59.0122 32.3683 59.2365 32.153Z" fill="#2F2E41"/>
<path d="M52.1761 61.1455L53.5107 59.1833C53.6669 58.9544 53.9077 58.7965 54.1804 58.7443C54.4532 58.6922 54.7355 58.7499 54.9656 58.905L71.375 69.9917C71.6047 70.1473 71.7631 70.3874 71.8155 70.6592C71.8678 70.931 71.8099 71.2124 71.6543 71.4417L70.3196 73.404C70.1635 73.6329 69.9227 73.7908 69.65 73.8429C69.3772 73.8951 69.0948 73.8374 68.8648 73.6823L52.4554 62.5955C52.2257 62.4399 52.0673 62.1999 52.0149 61.9281C51.9625 61.6563 52.0205 61.3748 52.1761 61.1455Z" fill="#DE2126"/>
<path d="M83.0443 51.01C83.0882 50.443 82.9289 49.8788 82.5946 49.4178L78.3786 46.4195C78.2986 46.3626 78.2081 46.322 78.1123 46.2999C78.0166 46.2779 77.9174 46.2748 77.8205 46.291C77.7235 46.3071 77.6307 46.3422 77.5474 46.394C77.464 46.4459 77.3917 46.5137 77.3347 46.5934L76.7286 47.44C76.7263 47.4377 76.7264 47.4342 76.7238 47.4323C76.7116 47.4236 76.6964 47.4201 76.6817 47.4226C76.6669 47.4251 76.6537 47.4333 76.645 47.4454L76.3967 47.7923C76.3923 47.7984 76.3893 47.8052 76.3876 47.8123C76.3859 47.8195 76.3857 47.827 76.3869 47.8343C76.3882 47.8416 76.3908 47.8485 76.3947 47.8548C76.3987 47.8611 76.4038 47.8665 76.4098 47.8708C76.4125 47.8727 76.4158 47.8715 76.4187 47.8728L76.1509 48.2469C76.1492 48.2449 76.1475 48.243 76.1456 48.2413C76.1389 48.2365 76.1314 48.2331 76.1234 48.2313C76.1154 48.2294 76.1072 48.2292 76.0991 48.2305C76.091 48.2319 76.0833 48.2348 76.0763 48.2391C76.0694 48.2435 76.0633 48.2491 76.0586 48.2558L75.5842 48.9183C75.5795 48.925 75.5761 48.9325 75.5742 48.9404C75.5724 48.9484 75.5721 48.9566 75.5735 48.9646C75.5748 48.9727 75.5777 48.9804 75.5821 48.9873C75.5864 48.9942 75.5921 49.0002 75.5987 49.005C75.601 49.0062 75.6034 49.0073 75.6058 49.0082L75.4133 49.2771C75.4119 49.2759 75.4111 49.2743 75.4096 49.2732C75.3968 49.2641 75.3808 49.2604 75.3653 49.263C75.3498 49.2656 75.3359 49.2742 75.3267 49.287L74.8437 49.9616C74.8346 49.9744 74.8309 49.9903 74.8335 50.0058C74.8361 50.0213 74.8448 50.0351 74.8576 50.0442C74.8591 50.0452 74.8609 50.0455 74.8625 50.0464L70.3226 56.3874C70.2786 56.9545 70.438 57.5187 70.7723 57.9797L74.9883 60.978C75.0683 61.0349 75.1588 61.0755 75.2545 61.0976C75.3503 61.1196 75.4495 61.1227 75.5464 61.1065C75.6433 61.0904 75.7361 61.0553 75.8195 61.0034C75.9028 60.9515 75.9751 60.8838 76.0322 60.804L80.9177 53.9802C80.9228 53.9875 80.9289 53.9941 80.9359 53.9997C80.9466 54.0072 80.9588 54.0126 80.9716 54.0154C80.9845 54.0183 80.9978 54.0186 81.0107 54.0163C81.0237 54.0141 81.0361 54.0093 81.0472 54.0023C81.0583 53.9952 81.0679 53.9861 81.0755 53.9753L81.9138 52.8044C81.9216 52.7938 81.9271 52.7818 81.9302 52.769C81.9332 52.7563 81.9338 52.743 81.9317 52.7301C81.9296 52.7171 81.925 52.7047 81.9181 52.6935C81.9112 52.6823 81.9022 52.6726 81.8915 52.6649C81.884 52.6602 81.8758 52.6565 81.8672 52.6541L83.0443 51.01Z" fill="#3A3768"/>
<path d="M82.2137 49.5955L81.593 49.1515L81.5396 49.2255C81.4734 49.3162 81.3745 49.3778 81.2636 49.3971C81.1528 49.4164 81.0388 49.3921 80.9456 49.3291L78.9618 47.9173C78.8677 47.8501 78.8042 47.7485 78.7853 47.6347C78.7664 47.521 78.7935 47.4044 78.8608 47.3105L78.9143 47.2365L78.3203 46.8222C78.2066 46.7404 78.065 46.7071 77.9266 46.7294C77.7882 46.7518 77.6644 46.828 77.5824 46.9414L77.5809 46.9435L70.7266 56.5186C70.6451 56.6326 70.6122 56.7741 70.635 56.9121C70.6578 57.0502 70.7345 57.1737 70.8483 57.2556L74.7506 60.029C74.8646 60.1103 75.0064 60.1432 75.1447 60.1204C75.283 60.0976 75.4066 60.021 75.4882 59.9074L75.4901 59.9047L82.3444 50.3325C82.4253 50.2184 82.4574 50.0769 82.4336 49.9392C82.4098 49.8015 82.3321 49.6789 82.2176 49.5982L82.2137 49.5955Z" fill="#F2F2F2"/>
<path d="M79.8026 47.9317L80.4069 48.3615C80.4171 48.3687 80.4257 48.3779 80.4323 48.3884C80.439 48.399 80.4434 48.4107 80.4455 48.423C80.4475 48.4352 80.4471 48.4478 80.4443 48.4599C80.4415 48.472 80.4363 48.4835 80.4291 48.4936C80.4219 48.5037 80.4127 48.5123 80.4021 48.5189C80.3915 48.5255 80.3797 48.53 80.3674 48.532C80.3551 48.5341 80.3425 48.5337 80.3303 48.5309C80.3182 48.5281 80.3067 48.5229 80.2965 48.5157L79.6922 48.0859C79.682 48.0787 79.6734 48.0695 79.6668 48.059C79.6602 48.0484 79.6557 48.0367 79.6536 48.0244C79.6516 48.0121 79.652 47.9996 79.6548 47.9875C79.6576 47.9753 79.6628 47.9639 79.67 47.9538C79.6773 47.9436 79.6864 47.935 79.697 47.9284C79.7076 47.9219 79.7194 47.9174 79.7317 47.9154C79.744 47.9133 79.7566 47.9137 79.7688 47.9165C79.7809 47.9193 79.7924 47.9245 79.8026 47.9317Z" fill="#E6E8EC"/>
<path d="M80.6167 48.7522C80.6757 48.7522 80.7236 48.7045 80.7236 48.6456C80.7236 48.5868 80.6757 48.5391 80.6167 48.5391C80.5576 48.5391 80.5098 48.5868 80.5098 48.6456C80.5098 48.7045 80.5576 48.7522 80.6167 48.7522Z" fill="#E6E8EC"/>
<path d="M78.1891 0C75.3254 0 72.5791 1.13379 70.5541 3.15194C68.5292 5.1701 67.3916 7.9073 67.3916 10.7614C67.3916 16.7043 78.7048 38.6286 78.7048 38.6286C78.7048 38.6286 88.9866 16.7075 88.9866 10.763C88.9869 9.3498 88.7078 7.95039 88.1654 6.64468C87.6229 5.33896 86.8278 4.15251 85.8253 3.15308C84.8228 2.15364 83.6326 1.36078 82.3226 0.819777C81.0127 0.278771 79.6087 0.000210911 78.1907 0H78.1891ZM78.1891 17.9378C77.0704 17.9378 75.9767 17.6072 75.0465 16.9877C74.1162 16.3682 73.3912 15.4877 72.9631 14.4576C72.535 13.4274 72.4229 12.2939 72.6412 11.2003C72.8595 10.1067 73.3982 9.10212 74.1893 8.31367C74.9804 7.52523 75.9883 6.98829 77.0856 6.77076C78.1829 6.55323 79.3202 6.66487 80.3538 7.09158C81.3874 7.51828 82.2709 8.24088 82.8924 9.16799C83.514 10.0951 83.8457 11.1851 83.8457 12.3001C83.8457 13.7953 83.2498 15.2293 82.189 16.2866C81.1281 17.3438 79.6894 17.9378 78.1891 17.9378Z" fill="#DE2126"/>
</g>
<defs>
<clipPath id="clip0_401:4639">
<rect width="117" height="96" fill="white"/>
</clipPath>
</defs>
</svg>
