<svg width="106" height="93" viewBox="0 0 106 93" fill="none" xmlns="http://www.w3.org/2000/svg">
<g clip-path="url(#clip0_401:5184)">
<path d="M17.8757 82.5183C14.3933 84.4024 12.8984 88.401 12.8984 88.401C12.8984 88.401 17.0496 89.345 20.5319 87.4609C24.0143 85.5769 25.5092 81.5783 25.5092 81.5783C25.5092 81.5783 21.3581 80.6343 17.8757 82.5183Z" fill="#F2F2F2"/>
<path d="M19.0222 83.8134C16.9826 87.2149 12.9313 88.5249 12.9313 88.5249C12.9313 88.5249 12.187 84.32 14.2266 80.9185C16.2662 77.5171 20.3174 76.207 20.3174 76.207C20.3174 76.207 21.0618 80.4119 19.0222 83.8134Z" fill="#F2F2F2"/>
<path d="M83.474 6.54541H71.1182V13.8859H83.474V6.54541Z" fill="#2F2E41"/>
<path d="M58.8773 7.72898H52.5068V5.5001C52.5068 4.65249 52.8424 3.83961 53.4398 3.24026C54.0371 2.64091 54.8473 2.3042 55.692 2.3042C56.5368 2.3042 57.347 2.64091 57.9443 3.24026C58.5417 3.83961 58.8773 4.65249 58.8773 5.5001V7.72898ZM52.6479 7.58746H58.7362V5.5001C58.7362 4.69003 58.4155 3.91313 57.8446 3.34032C57.2737 2.76751 56.4994 2.44571 55.692 2.44571C54.8847 2.44571 54.1104 2.76751 53.5395 3.34032C52.9686 3.91313 52.6479 4.69003 52.6479 5.5001V7.58746Z" fill="#3F3D56"/>
<path d="M62.027 7.42234V6.55127L45.8262 6.98681L45.3135 29.0507L47.7112 32.0224L62.027 7.42234Z" fill="#3F3D56"/>
<path d="M64.8957 7.11572L47.3359 7.51668L47.712 32.0225L64.658 30.1898L64.8957 7.11572Z" fill="#DE2126"/>
<path d="M79.8251 86.5125H77.8319L76.8838 78.7988H79.8254L79.8251 86.5125Z" fill="#FFB6B6"/>
<path d="M80.333 88.451L73.9062 88.4508V88.3692C73.9063 87.7036 74.1699 87.0652 74.639 86.5945C75.1081 86.1238 75.7443 85.8594 76.4077 85.8594H76.4079L80.3331 85.8595L80.333 88.451Z" fill="#2F2E41"/>
<path d="M72.5087 86.5125H70.5155L69.5674 78.7988H72.509L72.5087 86.5125Z" fill="#FFB6B6"/>
<path d="M73.0166 88.451L66.5898 88.4508V88.3692C66.5899 87.7036 66.8534 87.0652 67.3226 86.5945C67.7917 86.1238 68.4279 85.8594 69.0913 85.8594H69.0915L73.0167 85.8595L73.0166 88.451Z" fill="#2F2E41"/>
<path d="M66.6553 38.2129C66.6553 38.2129 63.7431 44.5053 66.374 57.171C69.0049 69.8367 69.0267 83.7416 69.0267 83.7416L73.0494 83.8074L75.3092 53.8713L76.4924 83.3848H80.4557L83.9486 54.3378C83.9486 54.3378 86.247 41.3674 81.1214 39.0452L66.6553 38.2129Z" fill="#2F2E41"/>
<path d="M80.5945 16.0065L71.7865 15.1919C69.0244 17.2119 67.4741 20.84 67.7923 24.5834C68.2238 29.6589 68.0779 36.6437 64.6152 39.6781C64.6152 39.6781 74.0527 47.1517 82.4361 40.0615C82.4361 40.0615 79.5695 32.3559 81.5376 29.2788C83.5058 26.2017 84.2159 17.5562 80.5945 16.0065Z" fill="#E4E4E4"/>
<path d="M54.3868 3.46525C54.3597 3.71999 54.3887 3.97759 54.4717 4.21988C54.5546 4.46217 54.6895 4.68326 54.8668 4.86759C55.0441 5.05192 55.2596 5.195 55.498 5.28675C55.7364 5.3785 55.9919 5.41669 56.2466 5.39863L67.8762 16.2883L69.9606 13.1025L57.8736 3.40011C57.815 2.97282 57.6022 2.58194 57.2756 2.30154C56.949 2.02114 56.5312 1.87069 56.1013 1.87872C55.6715 1.88675 55.2596 2.05269 54.9436 2.3451C54.6276 2.6375 54.4295 3.03606 54.3868 3.46525Z" fill="#FFB6B6"/>
<path d="M65.7044 14.6056L68.4633 11.7621C68.5418 11.6811 68.6367 11.6182 68.7417 11.5774C68.8466 11.5366 68.9591 11.5191 69.0714 11.5258C69.1838 11.5326 69.2933 11.5636 69.3926 11.6167C69.492 11.6698 69.5787 11.7437 69.647 11.8335L72.0388 14.9789C72.449 15.3842 72.6823 15.9362 72.6875 16.5139C72.6928 17.0915 72.4695 17.6477 72.0667 18.0604C71.6639 18.4732 71.1144 18.7088 70.5387 18.7157C69.963 18.7226 69.4081 18.5001 68.9956 18.0971L65.8074 15.7909C65.7161 15.7248 65.6401 15.6398 65.5845 15.5416C65.529 15.4434 65.4952 15.3344 65.4854 15.2219C65.4756 15.1094 65.4901 14.9961 65.5279 14.8898C65.5657 14.7834 65.6259 14.6865 65.7044 14.6056V14.6056Z" fill="#E4E4E4"/>
<path d="M97.5923 29.9839C97.6051 29.728 97.5619 29.4725 97.4657 29.2352C97.3694 28.9979 97.2225 28.7846 97.0353 28.6105C96.848 28.4363 96.625 28.3055 96.3819 28.2271C96.1388 28.1488 95.8815 28.1249 95.6282 28.1572L83.4135 17.9326L81.5088 21.2296L94.1144 30.2433C94.1965 30.6667 94.4306 31.0451 94.7723 31.3068C95.114 31.5686 95.5394 31.6955 95.9681 31.6635C96.3968 31.6316 96.7989 31.4429 97.0983 31.1334C97.3976 30.8238 97.5734 30.4148 97.5923 29.9839Z" fill="#FFB6B6"/>
<path d="M85.6756 19.4913L83.0784 22.4842C83.0045 22.5694 82.9131 22.6375 82.8106 22.6841C82.7081 22.7306 82.5968 22.7545 82.4842 22.754C82.3717 22.7534 82.2606 22.7286 82.1585 22.6811C82.0564 22.6337 81.9657 22.5647 81.8925 22.4788L79.3302 19.4716C78.8981 19.0898 78.6346 18.5516 78.5973 17.9751C78.5601 17.3986 78.7522 16.8308 79.1316 16.3963C79.5109 15.9617 80.0466 15.6958 80.6211 15.6568C81.1955 15.6179 81.762 15.8091 82.1961 16.1886L85.5071 18.3136C85.6019 18.3744 85.6825 18.4551 85.7434 18.55C85.8043 18.645 85.8441 18.752 85.8601 18.8637C85.8761 18.9755 85.8679 19.0894 85.836 19.1977C85.8042 19.306 85.7495 19.4061 85.6756 19.4913Z" fill="#E4E4E4"/>
<path d="M98.8332 34.3074H94.0078V32.6191C94.0078 31.977 94.262 31.3613 94.7145 30.9073C95.167 30.4533 95.7806 30.1982 96.4205 30.1982C97.0604 30.1982 97.6741 30.4533 98.1266 30.9073C98.5791 31.3613 98.8333 31.977 98.8333 32.6191L98.8332 34.3074ZM94.1146 34.2002H98.7264V32.6191C98.7264 32.0054 98.4835 31.417 98.051 30.9831C97.6186 30.5492 97.0321 30.3054 96.4205 30.3054C95.809 30.3054 95.2225 30.5492 94.79 30.9831C94.3576 31.417 94.1146 32.0054 94.1146 32.6191V34.2002Z" fill="#3F3D56"/>
<path d="M101.22 34.0749V33.415L88.948 33.745L88.5596 50.4577L90.3757 52.7088L101.22 34.0749Z" fill="#3F3D56"/>
<path d="M103.392 33.8428L90.0908 34.1465L90.3756 52.709L103.212 51.3208L103.392 33.8428Z" fill="#DE2126"/>
<path d="M76.8089 13.7225C79.6821 13.7225 82.0113 11.3855 82.0113 8.50262C82.0113 5.61975 79.6821 3.28271 76.8089 3.28271C73.9357 3.28271 71.6064 5.61975 71.6064 8.50262C71.6064 11.3855 73.9357 13.7225 76.8089 13.7225Z" fill="#FFB6B6"/>
<path d="M74.4133 6.17636C76.213 7.94597 79.3449 8.11558 81.324 6.5506C81.8733 8.4515 81.9334 10.4611 81.4988 12.3916C81.0641 14.3222 80.1489 16.1107 78.8385 17.59C79.9394 17.9892 81.2068 17.7266 82.1908 17.0904C83.1748 16.4543 83.9036 15.483 84.4535 14.4462C85.8148 11.8795 86.1557 8.74551 85.1926 6.0033C84.2295 3.2611 81.9221 0.987245 79.1188 0.250954C76.3155 -0.485336 73.1012 0.424166 71.2283 2.64275C69.2698 4.9627 68.9525 8.36202 69.8108 11.2778C70.669 14.1937 72.5514 16.6977 74.6196 18.9197C73.6262 16.3567 72.9674 13.6754 72.6597 10.9428C72.5545 10.0069 72.493 9.04219 72.7565 8.13825C73.0201 7.23431 73.6686 6.39233 74.5725 6.13835" fill="#2F2E41"/>
<path d="M105.838 88.7589H43.896C43.8529 88.7589 43.8115 88.7417 43.781 88.7111C43.7505 88.6805 43.7334 88.639 43.7334 88.5957C43.7334 88.5525 43.7505 88.511 43.781 88.4804C43.8115 88.4498 43.8529 88.4326 43.896 88.4326H105.838C105.881 88.4326 105.922 88.4498 105.953 88.4804C105.983 88.511 106 88.5525 106 88.5957C106 88.639 105.983 88.6805 105.953 88.7111C105.922 88.7417 105.881 88.7589 105.838 88.7589Z" fill="#CACACA"/>
<path d="M26.5 88.7589H0.162577C0.119459 88.7589 0.078109 88.7417 0.04762 88.7111C0.0171309 88.6805 0 88.639 0 88.5957C0 88.5525 0.0171309 88.511 0.04762 88.4804C0.078109 88.4498 0.119459 88.4326 0.162577 88.4326H26.5C26.5431 88.4326 26.5845 88.4498 26.615 88.4804C26.6454 88.511 26.6626 88.5525 26.6626 88.5957C26.6626 88.639 26.6454 88.6805 26.615 88.7111C26.5845 88.7417 26.5431 88.7589 26.5 88.7589Z" fill="#CACACA"/>
<path d="M96.2317 74.5984H91.4062V72.9101C91.4063 72.268 91.6604 71.6523 92.1129 71.1983C92.5654 70.7443 93.1791 70.4893 93.819 70.4893C94.4589 70.4893 95.0725 70.7443 95.525 71.1983C95.9775 71.6523 96.2317 72.268 96.2317 72.9101L96.2317 74.5984ZM91.5131 74.4912H96.1248V72.9101C96.1248 72.2965 95.8819 71.708 95.4495 71.2741C95.017 70.8402 94.4305 70.5965 93.819 70.5965C93.2074 70.5965 92.6209 70.8402 92.1885 71.2741C91.756 71.708 91.5131 72.2965 91.5131 72.9101V74.4912Z" fill="#CACACA"/>
<path d="M98.618 74.3659V73.7061L86.3464 74.0361L85.958 90.7487L87.7741 92.9998L98.618 74.3659Z" fill="#CACACA"/>
<path d="M100.79 74.1338L87.4893 74.4375L87.7741 93L100.61 91.6118L100.79 74.1338Z" fill="#E4E4E4"/>
</g>
<defs>
<clipPath id="clip0_401:5184">
<rect width="106" height="93" fill="white"/>
</clipPath>
</defs>
</svg>
